<?xml version="1.0" encoding="UTF-8" standalone="no"?>
<!-- Created with Inkscape (http://www.inkscape.org/) -->

<svg
   xmlns:dc="http://purl.org/dc/elements/1.1/"
   xmlns:cc="http://creativecommons.org/ns#"
   xmlns:rdf="http://www.w3.org/1999/02/22-rdf-syntax-ns#"
   xmlns:svg="http://www.w3.org/2000/svg"
   xmlns="http://www.w3.org/2000/svg"
   xmlns:sodipodi="http://sodipodi.sourceforge.net/DTD/sodipodi-0.dtd"
   xmlns:inkscape="http://www.inkscape.org/namespaces/inkscape"
   width="600.39301"
   height="139.41916"
   id="svg2"
   version="1.1"
   inkscape:version="0.47 r22583"
   sodipodi:docname="Nuevo documento 1">
  <sodipodi:namedview
     id="base"
     pagecolor="#ffffff"
     bordercolor="#666666"
     borderopacity="1.0"
     inkscape:pageopacity="0.0"
     inkscape:pageshadow="2"
     inkscape:zoom="0.68702583"
     inkscape:cx="43.841433"
     inkscape:cy="-325.21534"
     inkscape:document-units="px"
     inkscape:current-layer="layer1"
     showgrid="false"
     inkscape:window-width="1680"
     inkscape:window-height="975"
     inkscape:window-x="0"
     inkscape:window-y="24"
     inkscape:window-maximized="1" />
  <defs
     id="defs4">
    <inkscape:perspective
       id="perspective10"
       inkscape:persp3d-origin="372.04724 : 350.78739 : 1"
       inkscape:vp_z="744.09448 : 526.18109 : 1"
       inkscape:vp_y="0 : 1000 : 0"
       inkscape:vp_x="0 : 526.18109 : 1"
       sodipodi:type="inkscape:persp3d" />
  </defs>
  <metadata
     id="metadata7">
    <rdf:RDF>
      <cc:Work
         rdf:about="">
        <dc:format>image/svg+xml</dc:format>
        <dc:type
           rdf:resource="http://purl.org/dc/dcmitype/StillImage" />
        <dc:title></dc:title>
      </cc:Work>
    </rdf:RDF>
  </metadata>
  <g
     id="layer1"
     inkscape:groupmode="layer"
     inkscape:label="Capa 1"
     transform="translate(-51.651431,-61.546593)">
    <g
       id="g2822"
       transform="matrix(0.62934746,0,0,0.62934746,-137.49919,-116.34292)">
      <g
         word-spacing="normal"
         letter-spacing="normal"
         font-size-adjust="none"
         font-stretch="normal"
         font-weight="normal"
         font-variant="normal"
         font-style="normal"
         stroke-miterlimit="10.433"
         xml:space="preserve"
         transform="matrix(1.0629921,0,0,-1.0629921,-186.02362,789.27165)"
         id="content"
         style="font-style:normal;font-variant:normal;font-weight:normal;font-stretch:normal;letter-spacing:normal;word-spacing:normal;text-anchor:start;fill:none;stroke:#000000;stroke-linecap:butt;stroke-linejoin:miter;stroke-miterlimit:10.43299961;stroke-opacity:1;stroke-dasharray:none;stroke-dashoffset:0"><path
           id="path2825"
           d="m 464.92,356.73 -0.19,-0.31 -0.19,-0.29 -0.18,-0.27 -0.19,-0.26 -0.18,-0.25 -0.19,-0.23 -0.19,-0.23 -0.18,-0.2 -0.19,-0.2 -0.18,-0.18 -0.19,-0.17 -0.19,-0.16 -0.19,-0.15 -0.18,-0.14 -0.19,-0.13 -0.19,-0.12 -0.19,-0.11 -0.19,-0.1 -0.19,-0.09 -0.19,-0.09 -0.2,-0.07 -0.19,-0.07 -0.19,-0.06 -0.2,-0.06 -0.2,-0.05 -0.19,-0.04 -0.2,-0.04 -0.2,-0.03 -0.4,-0.05 -0.41,-0.04 c -0.6,-0.04 -1.05,-0.04 -1.05,-0.99 0,-0.3 0.25,-0.55 0.65,-0.55 h 9.27 c 0.3,0 0.94,0 0.94,0.95 0,0.55 -0.44,0.59 -0.8,0.59 -1.14,0.1 -2.34,0.5 -2.34,1.75 0,0.6 0.3,1.14 0.7,1.84 l 3.79,6.38 h 12.5 l -0.15,1.54 h -11.41 l 9.82,16.44 1.59,-16.44 0.15,-1.54 c 0.1,-1.05 0.8,-7.82 0.8,-8.32 0,-1.49 -2.59,-1.65 -3.59,-1.65 -0.7,0 -1.2,0 -1.2,-0.99 0,-0.55 0.6,-0.55 0.7,-0.55 h 11.86 c 0.3,0 0.89,0 0.89,1 0,0.54 -0.49,0.54 -1.14,0.54 -3.09,0 -3.09,0.35 -3.24,1.8 l -3.04,31.13 c -0.1,1 -0.1,1.2 -0.94,1.2 -0.8,0 -1,-0.35 -1.3,-0.85 z"
           style="fill:#000000;stroke-width:0" /><path
           id="path2827"
           d="m 501.68,347.7 -0.03,-0.12 -0.04,-0.11 -0.05,-0.12 -0.04,-0.13 -0.06,-0.12 -0.06,-0.13 -0.06,-0.12 -0.07,-0.13 -0.07,-0.13 -0.07,-0.13 -0.08,-0.13 -0.09,-0.12 -0.09,-0.13 -0.09,-0.12 -0.1,-0.12 -0.1,-0.12 -0.11,-0.12 -0.11,-0.11 -0.11,-0.1 -0.12,-0.1 -0.12,-0.1 -0.13,-0.09 -0.13,-0.08 -0.13,-0.08 -0.14,-0.07 -0.14,-0.06 -0.15,-0.05 -0.15,-0.05 -0.15,-0.03 -0.16,-0.03 -0.16,-0.02 -0.16,0 c -0.11,0 -1.16,0 -1.89,0.49 1.43,0.45 1.53,1.7 1.53,1.92 0,0.76 -0.59,1.28 -1.39,1.28 -0.98,0 -1.99,-0.83 -1.99,-2.12 0,-1.75 1.95,-2.55 3.67,-2.55 1.6,0 3.03,1.01 3.9,2.48 0.84,-1.85 2.76,-2.48 4.15,-2.48 4.01,0 6.14,4.36 6.14,5.33 0,0.46 -0.46,0.46 -0.56,0.46 -0.49,0 -0.52,-0.17 -0.67,-0.59 -0.73,-2.41 -2.82,-4.22 -4.77,-4.22 -1.4,0 -2.13,0.94 -2.13,2.26 0,0.91 0.84,4.08 1.81,7.95 0.7,2.69 2.27,3.56 3.42,3.56 0.07,0 1.16,0 1.89,-0.49 -1.12,-0.31 -1.54,-1.29 -1.54,-1.91 0,-0.77 0.59,-1.3 1.4,-1.3 0.8,0 1.95,0.67 1.95,2.13 0,1.96 -2.23,2.55 -3.63,2.55 -1.74,0 -3.14,-1.15 -3.9,-2.48 -0.63,1.43 -2.23,2.48 -4.19,2.48 -3.9,0 -6.13,-4.29 -6.13,-5.34 0,-0.45 0.48,-0.45 0.59,-0.45 0.45,0 0.49,0.14 0.66,0.59 0.87,2.72 3.07,4.22 4.78,4.22 1.15,0 2.09,-0.63 2.09,-2.3 0,-0.7 -0.42,-2.44 -0.73,-3.63 z"
           style="fill:#000000;stroke-width:0" /><path
           id="path2829"
           d="m 576.92,356.73 -0.19,-0.31 -0.19,-0.29 -0.18,-0.27 -0.19,-0.26 -0.18,-0.25 -0.19,-0.23 -0.19,-0.23 -0.18,-0.2 -0.19,-0.2 -0.18,-0.18 -0.19,-0.17 -0.19,-0.16 -0.19,-0.15 -0.18,-0.14 -0.19,-0.13 -0.19,-0.12 -0.19,-0.11 -0.19,-0.1 -0.19,-0.09 -0.19,-0.09 -0.2,-0.07 -0.19,-0.07 -0.19,-0.06 -0.2,-0.06 -0.2,-0.05 -0.19,-0.04 -0.2,-0.04 -0.2,-0.03 -0.4,-0.05 -0.41,-0.04 c -0.6,-0.04 -1.05,-0.04 -1.05,-0.99 0,-0.3 0.25,-0.55 0.65,-0.55 h 9.27 c 0.3,0 0.94,0 0.94,0.95 0,0.55 -0.44,0.59 -0.8,0.59 -1.14,0.1 -2.33,0.5 -2.33,1.75 0,0.6 0.29,1.14 0.69,1.84 l 3.79,6.38 h 12.5 l -0.15,1.54 h -11.4 l 9.81,16.44 1.59,-16.44 0.15,-1.54 c 0.1,-1.05 0.8,-7.82 0.8,-8.32 0,-1.49 -2.59,-1.65 -3.59,-1.65 -0.69,0 -1.19,0 -1.19,-0.99 0,-0.55 0.59,-0.55 0.69,-0.55 h 11.86 c 0.3,0 0.89,0 0.89,1 0,0.54 -0.49,0.54 -1.14,0.54 -3.09,0 -3.09,0.35 -3.24,1.8 l -3.04,31.13 c -0.09,1 -0.09,1.2 -0.94,1.2 -0.8,0 -1,-0.35 -1.3,-0.85 z"
           style="fill:#000000;stroke-width:0" /><path
           id="path2831"
           d="m 625.39,357.14 0,0.03 0.01,0.02 0.01,0.02 0,0.02 0.01,0.02 0,0.02 0.01,0.04 0.01,0.04 0.01,0.03 0.01,0.03 0.01,0.03 0.01,0.03 0,0.03 0.01,0.02 0,0.03 0.01,0.02 0,0.02 0.01,0.02 0,0.02 0,0.02 0.01,0.02 0,0.02 0,0.02 0,0.03 0,0.03 0.01,0.04 0,0.03 0,0.02 0,0.02 0,0.01 0,0.02 c 0,0.7 -0.56,1.12 -1.15,1.12 -0.39,0 -1.05,-0.17 -1.43,-0.84 -0.11,-0.21 -0.39,-1.32 -0.56,-2.02 l -0.73,-2.9 c -0.21,-0.83 -1.29,-5.23 -1.4,-5.61 -0.03,0 -1.57,-3.03 -4.29,-3.03 -2.37,0 -2.37,2.26 -2.37,2.89 0,1.89 0.8,4.08 1.85,6.77 0.42,1.11 0.59,1.53 0.59,2.12 0,1.68 -1.43,2.97 -3.31,2.97 -3.52,0 -5.09,-4.74 -5.09,-5.34 0,-0.45 0.49,-0.45 0.59,-0.45 0.49,0 0.52,0.17 0.63,0.56 0.87,2.89 2.37,4.25 3.76,4.25 0.6,0 0.88,-0.38 0.88,-1.22 0,-0.8 -0.32,-1.57 -0.49,-2.02 -1.67,-4.26 -2.03,-5.55 -2.03,-7.08 0,-0.59 0,-2.23 1.37,-3.35 1.08,-0.91 2.54,-1.08 3.48,-1.08 1.4,0 2.65,0.53 3.8,1.57 -0.45,-1.92 -0.83,-3.38 -2.3,-5.13 -0.94,-1.07 -2.33,-2.23 -4.18,-2.23 -0.25,0 -1.88,0 -2.62,1.16 1.88,0.2 1.88,1.88 1.88,1.91 0,1.12 -1,1.33 -1.36,1.33 -0.87,0 -2.02,-0.7 -2.02,-2.3 0,-1.78 1.68,-3.07 4.15,-3.07 3.52,0 7.81,2.72 8.89,7.07 z"
           style="fill:#000000;stroke-width:0" /><path
           id="path2833"
           d="m 688.92,356.73 -0.19,-0.31 -0.19,-0.29 -0.18,-0.27 -0.19,-0.26 -0.18,-0.25 -0.19,-0.23 -0.19,-0.23 -0.18,-0.2 -0.19,-0.2 -0.18,-0.18 -0.19,-0.17 -0.19,-0.16 -0.19,-0.15 -0.18,-0.14 -0.19,-0.13 -0.19,-0.12 -0.19,-0.11 -0.19,-0.1 -0.19,-0.09 -0.19,-0.09 -0.2,-0.07 -0.19,-0.07 -0.19,-0.06 -0.2,-0.06 -0.2,-0.05 -0.19,-0.04 -0.2,-0.04 -0.2,-0.03 -0.4,-0.05 -0.41,-0.04 c -0.6,-0.04 -1.05,-0.04 -1.05,-0.99 0,-0.3 0.25,-0.55 0.65,-0.55 h 9.27 c 0.3,0 0.94,0 0.94,0.95 0,0.55 -0.44,0.59 -0.8,0.59 -1.14,0.1 -2.33,0.5 -2.33,1.75 0,0.6 0.29,1.14 0.69,1.84 l 3.79,6.38 h 12.5 l -0.15,1.54 h -11.4 l 9.81,16.44 1.59,-16.44 0.15,-1.54 c 0.1,-1.05 0.8,-7.82 0.8,-8.32 0,-1.49 -2.59,-1.65 -3.59,-1.65 -0.69,0 -1.19,0 -1.19,-0.99 0,-0.55 0.59,-0.55 0.69,-0.55 h 11.86 c 0.3,0 0.89,0 0.89,1 0,0.54 -0.49,0.54 -1.14,0.54 -3.09,0 -3.09,0.35 -3.24,1.8 l -3.04,31.13 c -0.09,1 -0.09,1.2 -0.94,1.2 -0.8,0 -1,-0.35 -1.3,-0.85 z"
           style="fill:#000000;stroke-width:0" /><path
           id="path2835"
           d="m 722.86,347.07 0.17,0.17 0.16,0.16 0.17,0.17 0.17,0.16 0.18,0.18 0.09,0.09 0.1,0.09 0.1,0.09 0.11,0.1 0.11,0.1 0.12,0.11 0.12,0.11 0.13,0.11 0.13,0.12 0.15,0.13 0.15,0.13 0.16,0.14 0.17,0.14 0.18,0.15 0.19,0.16 0.2,0.16 0.21,0.17 0.22,0.19 0.23,0.18 0.25,0.2 0.25,0.21 0.27,0.22 c 0.74,0.59 3.35,2.69 4.37,3.66 2.12,2.09 3.45,3.87 3.45,4.29 0,0.42 -0.45,0.42 -0.6,0.42 -0.31,0 -0.41,-0.07 -0.59,-0.35 -1.08,-1.6 -1.81,-2.13 -2.65,-2.13 -0.42,0 -0.94,0.04 -1.99,1.05 -1.18,1.18 -1.95,1.43 -2.75,1.43 -2.79,0 -4.67,-3.04 -4.67,-4.08 0,-0.32 0.35,-0.42 0.59,-0.42 0.42,0 0.49,0.1 0.63,0.49 0.52,1.22 2.47,1.29 3.03,1.29 0.8,0 1.71,-0.21 2.2,-0.32 1.91,-0.41 2.16,-0.41 3.03,-0.41 -0.9,-0.95 -1.53,-1.57 -4.85,-4.22 -2.71,-2.17 -3.65,-3.04 -4.32,-3.73 -2.09,-2.06 -3.1,-3.6 -3.1,-3.91 0,-0.42 0.45,-0.42 0.59,-0.42 0.35,0 0.42,0.07 0.59,0.35 0.94,1.32 2.03,2.13 3.21,2.13 0.42,0 0.94,-0.04 1.88,-0.91 1.08,-1.04 1.78,-1.57 2.9,-1.57 3.73,0 6.06,4.22 6.06,5.4 0,0.42 -0.38,0.46 -0.59,0.46 -0.42,0 -0.49,-0.17 -0.62,-0.56 -0.67,-1.74 -2.72,-2.58 -4.43,-2.58 -0.81,0 -1.68,0.18 -2.55,0.38 -1.6,0.35 -1.88,0.35 -2.51,0.35 -0.07,0 -0.59,0 -0.8,-0.03 z"
           style="fill:#000000;stroke-width:0" /><path
           id="path2837"
           d="m 463.97,295.89 -0.05,-0.18 -0.04,-0.17 -0.04,-0.16 -0.05,-0.15 -0.04,-0.15 -0.05,-0.13 -0.04,-0.13 -0.06,-0.12 -0.05,-0.11 -0.06,-0.11 -0.06,-0.1 -0.08,-0.09 -0.07,-0.09 -0.09,-0.07 -0.09,-0.08 -0.11,-0.06 -0.11,-0.07 -0.13,-0.05 -0.13,-0.05 -0.15,-0.05 -0.16,-0.04 -0.09,-0.02 -0.09,-0.02 -0.09,-0.01 -0.1,-0.02 -0.1,-0.01 -0.1,-0.01 -0.11,-0.02 -0.12,-0.01 -0.11,-0.01 -0.13,-0.01 -0.12,-0.01 -0.13,0 -0.14,-0.01 -0.14,-0.01 -0.14,0 -0.15,-0.01 -0.16,0 -0.16,0 -0.16,0 -0.17,-0.01 -0.18,0 -0.18,0 c -0.85,0 -1.35,0 -1.35,-0.99 0,-0.55 0.45,-0.55 1.35,-0.55 h 17.78 c 7.87,0 13.75,5.88 13.75,10.76 0,3.59 -2.89,6.47 -7.72,7.03 5.18,0.94 10.41,4.62 10.41,9.36 0,3.69 -3.29,6.87 -9.27,6.87 l -0.69,-1.54 c 4.38,0 5.42,-2.94 5.42,-5.13 0,-4.39 -4.28,-9.12 -10.35,-9.12 h -7.28 l -0.3,-1.09 h 9.42 c 4.78,0 5.73,-3.69 5.73,-5.83 0,-4.93 -4.44,-9.77 -10.32,-9.77 h -6.77 c -0.7,0 -0.8,0 -1.09,0.05 -0.5,0.05 -0.65,0.11 -0.65,0.5 0,0.15 0,0.25 0.25,1.15 l 3.43,13.9 0.3,1.09 3.09,12.36 c 0.45,1.74 0.55,1.89 2.69,1.89 h 6.43 l 0.69,1.54 h -16.73 c -0.95,0 -1.45,0 -1.45,-0.99 0,-0.55 0.45,-0.55 1.4,-0.55 0.1,0 1.04,0 1.89,-0.1 0.89,-0.1 1.34,-0.15 1.34,-0.8 0,-0.2 -0.05,-0.35 -0.2,-0.94 z"
           style="fill:#000000;stroke-width:0" /><path
           id="path2839"
           d="m 501.68,287.7 -0.03,-0.12 -0.04,-0.11 -0.05,-0.12 -0.04,-0.13 -0.06,-0.12 -0.06,-0.13 -0.06,-0.12 -0.07,-0.13 -0.07,-0.13 -0.07,-0.13 -0.08,-0.13 -0.09,-0.12 -0.09,-0.13 -0.09,-0.12 -0.1,-0.12 -0.1,-0.12 -0.11,-0.12 -0.11,-0.11 -0.11,-0.1 -0.12,-0.1 -0.12,-0.1 -0.13,-0.09 -0.13,-0.08 -0.13,-0.08 -0.14,-0.07 -0.14,-0.06 -0.15,-0.05 -0.15,-0.05 -0.15,-0.03 -0.16,-0.03 -0.16,-0.02 -0.16,0 c -0.11,0 -1.16,0 -1.89,0.49 1.43,0.45 1.53,1.7 1.53,1.92 0,0.76 -0.59,1.28 -1.39,1.28 -0.98,0 -1.99,-0.83 -1.99,-2.12 0,-1.75 1.95,-2.55 3.67,-2.55 1.6,0 3.03,1.01 3.9,2.48 0.84,-1.85 2.76,-2.48 4.15,-2.48 4.01,0 6.14,4.36 6.14,5.33 0,0.46 -0.46,0.46 -0.56,0.46 -0.49,0 -0.52,-0.17 -0.67,-0.59 -0.73,-2.41 -2.82,-4.22 -4.77,-4.22 -1.4,0 -2.13,0.94 -2.13,2.26 0,0.91 0.84,4.08 1.81,7.95 0.7,2.69 2.27,3.56 3.42,3.56 0.07,0 1.16,0 1.89,-0.49 -1.12,-0.31 -1.54,-1.29 -1.54,-1.91 0,-0.77 0.59,-1.3 1.4,-1.3 0.8,0 1.95,0.67 1.95,2.13 0,1.96 -2.23,2.55 -3.63,2.55 -1.74,0 -3.14,-1.15 -3.9,-2.48 -0.63,1.43 -2.23,2.48 -4.19,2.48 -3.9,0 -6.13,-4.29 -6.13,-5.34 0,-0.45 0.48,-0.45 0.59,-0.45 0.45,0 0.49,0.14 0.66,0.59 0.87,2.72 3.07,4.22 4.78,4.22 1.15,0 2.09,-0.63 2.09,-2.3 0,-0.7 -0.42,-2.44 -0.73,-3.63 z"
           style="fill:#000000;stroke-width:0" /><path
           id="path2841"
           d="m 575.97,295.89 -0.05,-0.18 -0.04,-0.17 -0.04,-0.16 -0.05,-0.15 -0.04,-0.15 -0.05,-0.13 -0.04,-0.13 -0.06,-0.12 -0.05,-0.11 -0.06,-0.11 -0.06,-0.1 -0.08,-0.09 -0.07,-0.09 -0.09,-0.07 -0.09,-0.08 -0.11,-0.06 -0.11,-0.07 -0.13,-0.05 -0.13,-0.05 -0.15,-0.05 -0.16,-0.04 -0.09,-0.02 -0.09,-0.02 -0.09,-0.01 -0.1,-0.02 -0.1,-0.01 -0.1,-0.01 -0.11,-0.02 -0.12,-0.01 -0.11,-0.01 -0.13,-0.01 -0.12,-0.01 -0.13,0 -0.14,-0.01 -0.14,-0.01 -0.14,0 -0.15,-0.01 -0.16,0 -0.16,0 -0.16,0 -0.17,-0.01 -0.18,0 -0.18,0 c -0.85,0 -1.35,0 -1.35,-0.99 0,-0.55 0.45,-0.55 1.35,-0.55 h 17.78 c 7.87,0 13.75,5.88 13.75,10.76 0,3.59 -2.89,6.47 -7.72,7.03 5.18,0.94 10.41,4.62 10.41,9.36 0,3.69 -3.29,6.87 -9.26,6.87 l -0.7,-1.54 c 4.38,0 5.42,-2.94 5.42,-5.13 0,-4.39 -4.28,-9.12 -10.35,-9.12 h -7.28 l -0.3,-1.09 h 9.42 c 4.78,0 5.73,-3.69 5.73,-5.83 0,-4.93 -4.44,-9.77 -10.32,-9.77 h -6.77 c -0.7,0 -0.8,0 -1.09,0.05 -0.5,0.05 -0.65,0.11 -0.65,0.5 0,0.15 0,0.25 0.25,1.15 l 3.43,13.9 0.3,1.09 3.09,12.36 c 0.45,1.74 0.55,1.89 2.69,1.89 h 6.43 l 0.7,1.54 h -16.74 c -0.95,0 -1.45,0 -1.45,-0.99 0,-0.55 0.45,-0.55 1.39,-0.55 0.11,0 1.05,0 1.9,-0.1 0.9,-0.1 1.34,-0.15 1.34,-0.8 0,-0.2 -0.05,-0.35 -0.19,-0.94 z"
           style="fill:#000000;stroke-width:0" /><path
           id="path2843"
           d="m 625.39,297.14 0,0.03 0.01,0.02 0.01,0.02 0,0.02 0.01,0.02 0,0.02 0.01,0.04 0.01,0.04 0.01,0.03 0.01,0.03 0.01,0.03 0.01,0.03 0,0.03 0.01,0.02 0,0.03 0.01,0.02 0,0.02 0.01,0.02 0,0.02 0,0.02 0.01,0.02 0,0.02 0,0.02 0,0.03 0,0.03 0.01,0.04 0,0.03 0,0.02 0,0.02 0,0.01 0,0.02 c 0,0.7 -0.56,1.12 -1.15,1.12 -0.39,0 -1.05,-0.17 -1.43,-0.84 -0.11,-0.21 -0.39,-1.32 -0.56,-2.02 l -0.73,-2.9 c -0.21,-0.83 -1.29,-5.23 -1.4,-5.61 -0.03,0 -1.57,-3.03 -4.29,-3.03 -2.37,0 -2.37,2.26 -2.37,2.89 0,1.89 0.8,4.08 1.85,6.77 0.42,1.11 0.59,1.53 0.59,2.12 0,1.68 -1.43,2.97 -3.31,2.97 -3.52,0 -5.09,-4.74 -5.09,-5.34 0,-0.45 0.49,-0.45 0.59,-0.45 0.49,0 0.52,0.17 0.63,0.56 0.87,2.89 2.37,4.25 3.76,4.25 0.6,0 0.88,-0.38 0.88,-1.22 0,-0.8 -0.32,-1.57 -0.49,-2.02 -1.67,-4.26 -2.03,-5.55 -2.03,-7.08 0,-0.59 0,-2.23 1.37,-3.35 1.08,-0.91 2.54,-1.08 3.48,-1.08 1.4,0 2.65,0.53 3.8,1.57 -0.45,-1.92 -0.83,-3.38 -2.3,-5.13 -0.94,-1.07 -2.33,-2.23 -4.18,-2.23 -0.25,0 -1.88,0 -2.62,1.16 1.88,0.2 1.88,1.88 1.88,1.91 0,1.12 -1,1.33 -1.36,1.33 -0.87,0 -2.02,-0.7 -2.02,-2.3 0,-1.78 1.68,-3.07 4.15,-3.07 3.52,0 7.81,2.72 8.89,7.07 z"
           style="fill:#000000;stroke-width:0" /><path
           id="path2845"
           d="m 687.97,295.89 -0.05,-0.18 -0.04,-0.17 -0.04,-0.16 -0.05,-0.15 -0.04,-0.15 -0.05,-0.13 -0.04,-0.13 -0.06,-0.12 -0.05,-0.11 -0.06,-0.11 -0.06,-0.1 -0.08,-0.09 -0.07,-0.09 -0.09,-0.07 -0.09,-0.08 -0.11,-0.06 -0.11,-0.07 -0.13,-0.05 -0.13,-0.05 -0.15,-0.05 -0.16,-0.04 -0.09,-0.02 -0.09,-0.02 -0.09,-0.01 -0.1,-0.02 -0.1,-0.01 -0.1,-0.01 -0.11,-0.02 -0.12,-0.01 -0.11,-0.01 -0.13,-0.01 -0.12,-0.01 -0.13,0 -0.14,-0.01 -0.14,-0.01 -0.14,0 -0.15,-0.01 -0.16,0 -0.16,0 -0.16,0 -0.17,-0.01 -0.18,0 -0.18,0 c -0.85,0 -1.35,0 -1.35,-0.99 0,-0.55 0.45,-0.55 1.35,-0.55 h 17.78 c 7.87,0 13.75,5.88 13.75,10.76 0,3.59 -2.89,6.47 -7.72,7.03 5.18,0.94 10.41,4.62 10.41,9.36 0,3.69 -3.29,6.87 -9.26,6.87 l -0.7,-1.54 c 4.38,0 5.42,-2.94 5.42,-5.13 0,-4.39 -4.28,-9.12 -10.35,-9.12 h -7.28 l -0.3,-1.09 h 9.42 c 4.78,0 5.73,-3.69 5.73,-5.83 0,-4.93 -4.44,-9.77 -10.32,-9.77 h -6.77 c -0.7,0 -0.8,0 -1.09,0.05 -0.5,0.05 -0.65,0.11 -0.65,0.5 0,0.15 0,0.25 0.25,1.15 l 3.43,13.9 0.3,1.09 3.09,12.36 c 0.45,1.74 0.55,1.89 2.69,1.89 h 6.43 l 0.7,1.54 h -16.74 c -0.95,0 -1.45,0 -1.45,-0.99 0,-0.55 0.45,-0.55 1.39,-0.55 0.11,0 1.05,0 1.9,-0.1 0.9,-0.1 1.34,-0.15 1.34,-0.8 0,-0.2 -0.05,-0.35 -0.19,-0.94 z"
           style="fill:#000000;stroke-width:0" /><path
           id="path2847"
           d="m 723.86,287.07 0.17,0.17 0.16,0.16 0.17,0.17 0.17,0.16 0.18,0.18 0.09,0.09 0.1,0.09 0.1,0.09 0.11,0.1 0.11,0.1 0.12,0.11 0.12,0.11 0.13,0.11 0.13,0.12 0.15,0.13 0.15,0.13 0.16,0.14 0.17,0.14 0.18,0.15 0.19,0.16 0.2,0.16 0.21,0.17 0.22,0.19 0.23,0.18 0.25,0.2 0.25,0.21 0.27,0.22 c 0.74,0.59 3.35,2.69 4.37,3.66 2.12,2.09 3.45,3.87 3.45,4.29 0,0.42 -0.45,0.42 -0.6,0.42 -0.31,0 -0.41,-0.07 -0.59,-0.35 -1.08,-1.6 -1.81,-2.13 -2.65,-2.13 -0.42,0 -0.94,0.04 -1.99,1.05 -1.18,1.18 -1.95,1.43 -2.75,1.43 -2.79,0 -4.67,-3.04 -4.67,-4.08 0,-0.32 0.35,-0.42 0.59,-0.42 0.42,0 0.49,0.1 0.63,0.49 0.52,1.22 2.47,1.29 3.03,1.29 0.8,0 1.71,-0.21 2.2,-0.32 1.91,-0.41 2.16,-0.41 3.03,-0.41 -0.9,-0.95 -1.53,-1.57 -4.85,-4.22 -2.71,-2.17 -3.65,-3.04 -4.32,-3.73 -2.09,-2.06 -3.1,-3.6 -3.1,-3.91 0,-0.42 0.45,-0.42 0.59,-0.42 0.35,0 0.42,0.07 0.59,0.35 0.94,1.32 2.03,2.13 3.21,2.13 0.42,0 0.94,-0.04 1.88,-0.91 1.08,-1.04 1.78,-1.57 2.9,-1.57 3.73,0 6.06,4.22 6.06,5.4 0,0.42 -0.38,0.46 -0.59,0.46 -0.42,0 -0.49,-0.17 -0.62,-0.56 -0.67,-1.74 -2.72,-2.58 -4.43,-2.58 -0.81,0 -1.68,0.18 -2.55,0.38 -1.6,0.35 -1.88,0.35 -2.51,0.35 -0.07,0 -0.59,0 -0.8,-0.03 z"
           style="fill:#000000;stroke-width:0" /><path
           id="path2849"
           d="m 756.22,423.91 0,-0.15 0.01,-0.16 0,-0.16 0,-0.08 0.01,-0.07 0.01,-0.08 0,-0.08 0.02,-0.08 0.01,-0.07 0.01,-0.08 0.02,-0.07 0.02,-0.07 0.02,-0.07 0.03,-0.07 0.03,-0.06 0.03,-0.06 0.04,-0.06 0.04,-0.06 0.04,-0.05 0.05,-0.04 0.05,-0.05 0.03,-0.02 0.03,-0.02 0.03,-0.02 0.03,-0.01 0.04,-0.02 0.03,-0.01 0.04,-0.02 0.03,-0.01 0.04,-0.01 0.04,-0.01 0.04,-0.01 0.05,0 0.04,-0.01 0.04,0 0.05,0 0.05,0 c 1.09,0 1.09,0.99 1.09,1.84 v 28.29 c 0,0.8 0,1.85 -1.04,1.85 -1.1,0 -1.1,-1 -1.1,-1.85 z"
           style="fill:#000000;stroke-width:0" /><path
           id="path2851"
           d="m 756.22,393.91 0,-0.15 0.01,-0.16 0,-0.16 0,-0.08 0.01,-0.07 0.01,-0.08 0,-0.08 0.02,-0.08 0.01,-0.07 0.01,-0.08 0.02,-0.07 0.02,-0.07 0.02,-0.07 0.03,-0.07 0.03,-0.06 0.03,-0.06 0.04,-0.06 0.04,-0.06 0.04,-0.05 0.05,-0.04 0.05,-0.05 0.03,-0.02 0.03,-0.02 0.03,-0.02 0.03,-0.01 0.04,-0.02 0.03,-0.01 0.04,-0.02 0.03,-0.01 0.04,-0.01 0.04,-0.01 0.04,-0.01 0.05,0 0.04,-0.01 0.04,0 0.05,0 0.05,0 c 1.09,0 1.09,0.99 1.09,1.84 v 28.29 c 0,0.8 0,1.85 -1.04,1.85 -1.1,0 -1.1,-1 -1.1,-1.85 z"
           style="fill:#000000;stroke-width:0" /><path
           id="path2853"
           d="m 756.22,363.91 0,-0.15 0.01,-0.16 0,-0.16 0,-0.08 0.01,-0.07 0.01,-0.08 0,-0.08 0.02,-0.08 0.01,-0.07 0.01,-0.08 0.02,-0.07 0.02,-0.07 0.02,-0.07 0.03,-0.07 0.03,-0.06 0.03,-0.06 0.04,-0.06 0.04,-0.06 0.04,-0.05 0.05,-0.04 0.05,-0.05 0.03,-0.02 0.03,-0.02 0.03,-0.02 0.03,-0.01 0.04,-0.02 0.03,-0.01 0.04,-0.02 0.03,-0.01 0.04,-0.01 0.04,-0.01 0.04,-0.01 0.05,0 0.04,-0.01 0.04,0 0.05,0 0.05,0 c 1.09,0 1.09,0.99 1.09,1.84 v 28.29 c 0,0.8 0,1.85 -1.04,1.85 -1.1,0 -1.1,-1 -1.1,-1.85 z"
           style="fill:#000000;stroke-width:0" /><path
           id="path2855"
           d="m 756.22,333.91 0,-0.15 0.01,-0.16 0,-0.16 0,-0.08 0.01,-0.07 0.01,-0.08 0,-0.08 0.02,-0.08 0.01,-0.07 0.01,-0.08 0.02,-0.07 0.02,-0.07 0.02,-0.07 0.03,-0.07 0.03,-0.06 0.03,-0.06 0.04,-0.06 0.04,-0.06 0.04,-0.05 0.05,-0.04 0.05,-0.05 0.03,-0.02 0.03,-0.02 0.03,-0.02 0.03,-0.01 0.04,-0.02 0.03,-0.01 0.04,-0.02 0.03,-0.01 0.04,-0.01 0.04,-0.01 0.04,-0.01 0.05,0 0.04,-0.01 0.04,0 0.05,0 0.05,0 c 1.09,0 1.09,0.99 1.09,1.84 v 28.29 c 0,0.8 0,1.85 -1.04,1.85 -1.1,0 -1.1,-1 -1.1,-1.85 z"
           style="fill:#000000;stroke-width:0" /><path
           id="path2857"
           d="m 756.22,303.91 0,-0.15 0.01,-0.16 0,-0.16 0,-0.08 0.01,-0.07 0.01,-0.08 0,-0.08 0.02,-0.08 0.01,-0.07 0.01,-0.08 0.02,-0.07 0.02,-0.07 0.02,-0.07 0.03,-0.07 0.03,-0.06 0.03,-0.06 0.04,-0.06 0.04,-0.06 0.04,-0.05 0.05,-0.04 0.05,-0.05 0.03,-0.02 0.03,-0.02 0.03,-0.02 0.03,-0.01 0.04,-0.02 0.03,-0.01 0.04,-0.02 0.03,-0.01 0.04,-0.01 0.04,-0.01 0.04,-0.01 0.05,0 0.04,-0.01 0.04,0 0.05,0 0.05,0 c 1.09,0 1.09,0.99 1.09,1.84 v 28.29 c 0,0.8 0,1.85 -1.04,1.85 -1.1,0 -1.1,-1 -1.1,-1.85 z"
           style="fill:#000000;stroke-width:0" /><path
           id="path2859"
           d="m 756.22,274.91 0,-0.15 0.01,-0.16 0,-0.16 0,-0.08 0.01,-0.07 0.01,-0.08 0,-0.08 0.02,-0.08 0.01,-0.07 0.01,-0.08 0.02,-0.07 0.02,-0.07 0.02,-0.07 0.03,-0.07 0.03,-0.06 0.03,-0.06 0.04,-0.06 0.04,-0.06 0.04,-0.05 0.05,-0.04 0.05,-0.05 0.03,-0.02 0.03,-0.02 0.03,-0.02 0.03,-0.01 0.04,-0.02 0.03,-0.01 0.04,-0.02 0.03,-0.01 0.04,-0.01 0.04,-0.01 0.04,-0.01 0.05,0 0.04,-0.01 0.04,0 0.05,0 0.05,0 c 1.09,0 1.09,0.99 1.09,1.84 v 28.29 c 0,0.8 0,1.85 -1.04,1.85 -1.1,0 -1.1,-1 -1.1,-1.85 z"
           style="fill:#000000;stroke-width:0" /><polygon
           id="polygon2861"
           points="796.45,452.98 802.18,447.9 803.08,448.8 796.45,455.57 789.78,448.8 790.68,447.9 "
           style="fill:#000000;stroke-width:0" /><path
           id="path2863"
           d="m 800.16,430.41 -8.67,-0.39 v -2.34 c 2.94,0 3.29,0 3.29,-1.95 v -15.39 h -3.44 V 408 h 11.91 v 2.34 h -3.09 z"
           style="fill:#000000;stroke-width:0" /><path
           id="path2865"
           d="m 800.66,438.73 -0.01,0.21 -0.01,0.2 -0.03,0.2 -0.04,0.19 -0.04,0.19 -0.05,0.19 -0.07,0.18 -0.07,0.18 -0.08,0.17 -0.08,0.17 -0.1,0.16 -0.1,0.16 -0.11,0.15 -0.12,0.15 -0.12,0.14 -0.13,0.13 -0.14,0.13 -0.14,0.12 -0.15,0.11 -0.15,0.11 -0.16,0.1 -0.16,0.09 -0.17,0.09 -0.17,0.07 -0.18,0.07 -0.17,0.06 -0.19,0.05 -0.18,0.04 -0.19,0.04 -0.19,0.02 -0.19,0.02 -0.2,0 c -2.14,0 -3.88,-1.74 -3.88,-3.89 0,-2.14 1.74,-3.88 3.88,-3.88 2.09,0 3.89,1.69 3.89,3.88 z"
           style="fill:#000000;stroke-width:0" /><polygon
           id="polygon2867"
           points="909.45,452.98 915.18,447.9 916.08,448.8 909.45,455.57 902.78,448.8 903.68,447.9 "
           style="fill:#000000;stroke-width:0" /><path
           id="path2869"
           d="m 904.13,430.02 v -2.34 c 0.85,0 1.95,0 2.69,-0.1 1.1,-0.2 1.1,-0.85 1.1,-1.9 v -19.77 c 0,-2.49 -0.75,-6.08 -3.74,-6.08 -0.79,0 -1.19,0.1 -1.94,0.3 0.95,0.7 1.2,1.74 1.2,2.49 0,1.74 -1.3,3.09 -3.09,3.09 -1.89,0 -3.14,-1.35 -3.14,-3.14 0,-2.84 2.99,-4.53 7.07,-4.53 4.29,0 9.02,2.59 9.02,7.87 v 24.5 z"
           style="fill:#000000;stroke-width:0" /><path
           id="path2871"
           d="m 913.3,438.73 0,0.2 -0.02,0.2 -0.02,0.19 -0.04,0.2 -0.04,0.18 -0.05,0.19 -0.07,0.18 -0.06,0.17 -0.08,0.18 -0.09,0.16 -0.09,0.17 -0.1,0.15 -0.11,0.16 -0.12,0.14 -0.12,0.15 -0.13,0.13 -0.13,0.13 -0.14,0.12 -0.15,0.12 -0.15,0.11 -0.16,0.1 -0.16,0.09 -0.17,0.09 -0.17,0.07 -0.18,0.07 -0.18,0.07 -0.19,0.05 -0.18,0.04 -0.19,0.04 -0.2,0.02 -0.2,0.02 -0.2,0 c -2.14,0 -3.88,-1.74 -3.88,-3.89 0,-2.14 1.74,-3.88 3.88,-3.88 2.15,0 3.89,1.74 3.89,3.88 z"
           style="fill:#000000;stroke-width:0" /><polygon
           id="polygon2873"
           points="1020.5,452.98 1026.2,447.9 1027.1,448.8 1020.5,455.57 1013.8,448.8 1014.7,447.9 "
           style="fill:#000000;stroke-width:0" /><path
           id="path2875"
           d="m 1015.7,419.8 v 22.77 l -8.9,-0.4 v -2.34 c 3.1,0 3.5,0 3.5,-1.94 v -27.55 h -3.5 V 408 h 12 v 2.34 h -3.4 v 6.33 c 1.5,1.14 1.8,1.44 2.8,2.14 l 5.1,-6.28 c 0.4,-0.6 1.2,-1.59 1.2,-1.74 0,-0.45 -0.9,-0.45 -1.5,-0.45 V 408 h 11.2 v 2.34 h -0.8 c -2.2,0 -2.3,0.2 -3,1 l -8.4,10.51 6.5,5.03 c 0.7,0.55 1.2,0.9 4.5,0.9 v 2.34 h -9.6 v -2.34 c 1.1,0 1.3,-0.16 1.7,-0.55 z"
           style="fill:#000000;stroke-width:0" /><path
           id="path2877"
           d="m 774.92,353.73 -0.19,-0.31 -0.19,-0.29 -0.18,-0.27 -0.19,-0.26 -0.18,-0.25 -0.19,-0.23 -0.19,-0.23 -0.18,-0.2 -0.19,-0.2 -0.18,-0.18 -0.19,-0.17 -0.19,-0.16 -0.19,-0.15 -0.18,-0.14 -0.19,-0.13 -0.19,-0.12 -0.19,-0.11 -0.19,-0.1 -0.19,-0.09 -0.19,-0.09 -0.2,-0.07 -0.19,-0.07 -0.19,-0.06 -0.2,-0.06 -0.2,-0.05 -0.19,-0.04 -0.2,-0.04 -0.2,-0.03 -0.4,-0.05 -0.41,-0.04 c -0.6,-0.04 -1.05,-0.04 -1.05,-0.99 0,-0.3 0.25,-0.55 0.65,-0.55 h 9.27 c 0.3,0 0.94,0 0.94,0.95 0,0.55 -0.44,0.59 -0.8,0.59 -1.14,0.1 -2.33,0.5 -2.33,1.75 0,0.6 0.29,1.14 0.69,1.84 l 3.79,6.38 h 12.5 l -0.15,1.54 h -11.4 l 9.81,16.44 1.59,-16.44 0.15,-1.54 c 0.1,-1.05 0.8,-7.82 0.8,-8.32 0,-1.49 -2.59,-1.65 -3.59,-1.65 -0.69,0 -1.19,0 -1.19,-0.99 0,-0.55 0.59,-0.55 0.69,-0.55 h 11.86 c 0.3,0 0.89,0 0.89,1 0,0.54 -0.49,0.54 -1.14,0.54 -3.09,0 -3.09,0.35 -3.24,1.8 l -3.04,31.13 c -0.09,1 -0.09,1.2 -0.94,1.2 -0.8,0 -1,-0.35 -1.3,-0.85 z"
           style="fill:#000000;stroke-width:0" /><path
           id="path2879"
           d="m 811.68,344.7 -0.03,-0.12 -0.04,-0.11 -0.05,-0.12 -0.04,-0.13 -0.06,-0.12 -0.06,-0.13 -0.06,-0.12 -0.07,-0.13 -0.07,-0.13 -0.07,-0.13 -0.08,-0.13 -0.09,-0.12 -0.09,-0.13 -0.09,-0.12 -0.1,-0.12 -0.1,-0.12 -0.11,-0.12 -0.11,-0.11 -0.11,-0.1 -0.12,-0.1 -0.12,-0.1 -0.13,-0.09 -0.13,-0.08 -0.13,-0.08 -0.14,-0.07 -0.14,-0.06 -0.15,-0.05 -0.15,-0.05 -0.15,-0.03 -0.16,-0.03 -0.16,-0.02 -0.16,0 c -0.11,0 -1.16,0 -1.89,0.49 1.43,0.45 1.53,1.7 1.53,1.92 0,0.76 -0.58,1.28 -1.39,1.28 -0.98,0 -1.99,-0.83 -1.99,-2.12 0,-1.75 1.95,-2.55 3.67,-2.55 1.6,0 3.03,1.01 3.9,2.48 0.84,-1.85 2.76,-2.48 4.15,-2.48 4.01,0 6.14,4.36 6.14,5.33 0,0.46 -0.46,0.46 -0.56,0.46 -0.49,0 -0.52,-0.17 -0.67,-0.59 -0.73,-2.41 -2.82,-4.22 -4.77,-4.22 -1.4,0 -2.13,0.94 -2.13,2.26 0,0.91 0.84,4.08 1.82,7.95 0.69,2.69 2.26,3.56 3.41,3.56 0.07,0 1.15,0 1.89,-0.49 -1.12,-0.31 -1.54,-1.29 -1.54,-1.91 0,-0.77 0.59,-1.3 1.4,-1.3 0.8,0 1.95,0.67 1.95,2.13 0,1.96 -2.23,2.55 -3.63,2.55 -1.74,0 -3.14,-1.15 -3.9,-2.48 -0.63,1.43 -2.23,2.48 -4.19,2.48 -3.9,0 -6.13,-4.29 -6.13,-5.34 0,-0.45 0.49,-0.45 0.59,-0.45 0.45,0 0.49,0.14 0.66,0.59 0.87,2.72 3.07,4.22 4.78,4.22 1.15,0 2.09,-0.63 2.09,-2.3 0,-0.7 -0.42,-2.44 -0.73,-3.63 z"
           style="fill:#000000;stroke-width:0" /><path
           id="path2881"
           d="m 886.92,353.73 -0.19,-0.31 -0.19,-0.29 -0.18,-0.27 -0.19,-0.26 -0.18,-0.25 -0.19,-0.23 -0.19,-0.23 -0.18,-0.2 -0.19,-0.2 -0.18,-0.18 -0.19,-0.17 -0.19,-0.16 -0.19,-0.15 -0.18,-0.14 -0.19,-0.13 -0.19,-0.12 -0.19,-0.11 -0.19,-0.1 -0.19,-0.09 -0.19,-0.09 -0.2,-0.07 -0.19,-0.07 -0.19,-0.06 -0.2,-0.06 -0.2,-0.05 -0.19,-0.04 -0.2,-0.04 -0.2,-0.03 -0.4,-0.05 -0.41,-0.04 c -0.6,-0.04 -1.05,-0.04 -1.05,-0.99 0,-0.3 0.25,-0.55 0.65,-0.55 h 9.27 c 0.3,0 0.94,0 0.94,0.95 0,0.55 -0.44,0.59 -0.8,0.59 -1.14,0.1 -2.33,0.5 -2.33,1.75 0,0.6 0.29,1.14 0.69,1.84 l 3.79,6.38 h 12.5 l -0.15,1.54 h -11.4 l 9.81,16.44 1.59,-16.44 0.15,-1.54 c 0.1,-1.05 0.8,-7.82 0.8,-8.32 0,-1.49 -2.59,-1.65 -3.59,-1.65 -0.69,0 -1.19,0 -1.19,-0.99 0,-0.55 0.59,-0.55 0.69,-0.55 h 11.86 c 0.3,0 0.89,0 0.89,1 0,0.54 -0.49,0.54 -1.14,0.54 -3.09,0 -3.09,0.35 -3.24,1.8 l -3.04,31.13 c -0.09,1 -0.09,1.2 -0.94,1.2 -0.8,0 -1,-0.35 -1.3,-0.85 z"
           style="fill:#000000;stroke-width:0" /><path
           id="path2883"
           d="m 935.39,354.14 0,0.03 0.01,0.02 0.01,0.02 0,0.02 0.01,0.02 0,0.02 0.01,0.04 0.01,0.04 0.01,0.03 0.01,0.03 0.01,0.03 0.01,0.03 0,0.03 0.01,0.02 0,0.03 0.01,0.02 0,0.02 0.01,0.02 0,0.02 0,0.02 0.01,0.02 0,0.02 0,0.02 0,0.03 0,0.03 0.01,0.04 0,0.03 0,0.02 0,0.02 0,0.01 0,0.02 c 0,0.7 -0.56,1.12 -1.15,1.12 -0.39,0 -1.05,-0.17 -1.43,-0.84 -0.11,-0.21 -0.39,-1.32 -0.56,-2.02 l -0.73,-2.9 c -0.21,-0.83 -1.29,-5.23 -1.4,-5.61 -0.03,0 -1.57,-3.03 -4.29,-3.03 -2.37,0 -2.37,2.26 -2.37,2.89 0,1.89 0.8,4.08 1.85,6.77 0.42,1.11 0.59,1.53 0.59,2.12 0,1.68 -1.43,2.97 -3.31,2.97 -3.52,0 -5.09,-4.74 -5.09,-5.34 0,-0.45 0.49,-0.45 0.59,-0.45 0.49,0 0.52,0.17 0.63,0.56 0.87,2.89 2.37,4.25 3.76,4.25 0.6,0 0.88,-0.38 0.88,-1.22 0,-0.8 -0.32,-1.57 -0.49,-2.02 -1.67,-4.26 -2.03,-5.55 -2.03,-7.08 0,-0.59 0,-2.23 1.37,-3.35 1.08,-0.91 2.54,-1.08 3.48,-1.08 1.4,0 2.65,0.53 3.8,1.57 -0.45,-1.92 -0.83,-3.38 -2.3,-5.13 -0.94,-1.07 -2.33,-2.23 -4.18,-2.23 -0.25,0 -1.88,0 -2.62,1.16 1.88,0.2 1.88,1.88 1.88,1.91 0,1.12 -1,1.33 -1.36,1.33 -0.87,0 -2.02,-0.7 -2.02,-2.3 0,-1.78 1.68,-3.07 4.15,-3.07 3.52,0 7.81,2.72 8.89,7.07 z"
           style="fill:#000000;stroke-width:0" /><path
           id="path2885"
           d="m 998.92,353.73 -0.19,-0.31 -0.19,-0.29 -0.18,-0.27 -0.19,-0.26 -0.18,-0.25 -0.19,-0.23 -0.19,-0.23 -0.18,-0.2 -0.19,-0.2 -0.18,-0.18 -0.19,-0.17 -0.19,-0.16 -0.19,-0.15 -0.18,-0.14 -0.19,-0.13 -0.19,-0.12 -0.19,-0.11 -0.19,-0.1 -0.19,-0.09 -0.19,-0.09 -0.2,-0.07 -0.19,-0.07 -0.19,-0.06 -0.2,-0.06 -0.2,-0.05 -0.19,-0.04 -0.2,-0.04 -0.2,-0.03 -0.4,-0.05 -0.41,-0.04 c -0.6,-0.04 -1.05,-0.04 -1.05,-0.99 0,-0.3 0.25,-0.55 0.65,-0.55 h 9.31 c 0.3,0 0.9,0 0.9,0.95 0,0.55 -0.4,0.59 -0.8,0.59 -1.1,0.1 -2.33,0.5 -2.33,1.75 0,0.6 0.29,1.14 0.73,1.84 l 3.8,6.38 h 12.5 l -0.2,1.54 h -11.4 l 9.8,16.44 1.6,-16.44 0.2,-1.54 c 0,-1.05 0.7,-7.82 0.7,-8.32 0,-1.49 -2.5,-1.65 -3.5,-1.65 -0.7,0 -1.2,0 -1.2,-0.99 0,-0.55 0.6,-0.55 0.7,-0.55 h 11.8 c 0.3,0 0.9,0 0.9,1 0,0.54 -0.5,0.54 -1.1,0.54 -3.1,0 -3.1,0.35 -3.3,1.8 l -3,31.13 c -0.1,1 -0.1,1.2 -1,1.2 -0.7,0 -1,-0.35 -1.3,-0.85 z"
           style="fill:#000000;stroke-width:0" /><path
           id="path2887"
           d="m 1032.9,344.07 0.1,0.17 0.2,0.16 0.2,0.17 0.1,0.16 0.2,0.18 0.1,0.09 0.1,0.09 0.1,0.09 0.1,0.1 0.1,0.1 0.1,0.11 0.2,0.11 0.1,0.11 0.1,0.12 0.2,0.13 0.1,0.13 0.2,0.14 0.2,0.14 0.1,0.15 0.2,0.16 0.2,0.16 0.2,0.17 0.3,0.19 0.2,0.18 0.2,0.2 0.3,0.21 0.3,0.22 c 0.7,0.59 3.3,2.69 4.3,3.66 2.1,2.09 3.5,3.87 3.5,4.29 0,0.42 -0.5,0.42 -0.6,0.42 -0.3,0 -0.4,-0.07 -0.6,-0.35 -1.1,-1.6 -1.8,-2.13 -2.7,-2.13 -0.4,0 -0.9,0.04 -2,1.05 -1.1,1.18 -1.9,1.43 -2.7,1.43 -2.8,0 -4.7,-3.04 -4.7,-4.08 0,-0.32 0.4,-0.42 0.6,-0.42 0.4,0 0.5,0.1 0.6,0.49 0.6,1.22 2.5,1.29 3.1,1.29 0.8,0 1.7,-0.21 2.2,-0.32 1.9,-0.41 2.1,-0.41 3,-0.41 -0.9,-0.95 -1.5,-1.57 -4.8,-4.22 -2.8,-2.17 -3.7,-3.04 -4.4,-3.73 -2.1,-2.06 -3.1,-3.6 -3.1,-3.91 0,-0.42 0.5,-0.42 0.6,-0.42 0.4,0 0.4,0.07 0.6,0.35 0.9,1.32 2,2.13 3.2,2.13 0.4,0 1,-0.04 1.9,-0.91 1.1,-1.04 1.8,-1.57 2.9,-1.57 3.7,0 6.1,4.22 6.1,5.4 0,0.42 -0.4,0.46 -0.6,0.46 -0.4,0 -0.5,-0.17 -0.7,-0.56 -0.6,-1.74 -2.7,-2.58 -4.4,-2.58 -0.8,0 -1.7,0.18 -2.5,0.38 -1.6,0.35 -1.9,0.35 -2.5,0.35 -0.1,0 -0.6,0 -0.8,-0.03 z"
           style="fill:#000000;stroke-width:0" /><path
           id="path2889"
           d="m 772.97,292.89 -0.05,-0.18 -0.04,-0.17 -0.04,-0.16 -0.05,-0.15 -0.04,-0.15 -0.05,-0.13 -0.04,-0.13 -0.06,-0.12 -0.05,-0.11 -0.06,-0.11 -0.06,-0.1 -0.08,-0.09 -0.07,-0.09 -0.09,-0.07 -0.09,-0.08 -0.11,-0.06 -0.11,-0.07 -0.13,-0.05 -0.13,-0.05 -0.15,-0.05 -0.16,-0.04 -0.09,-0.02 -0.09,-0.02 -0.09,-0.01 -0.1,-0.02 -0.1,-0.01 -0.1,-0.01 -0.11,-0.02 -0.12,-0.01 -0.11,-0.01 -0.13,-0.01 -0.12,-0.01 -0.13,0 -0.14,-0.01 -0.14,-0.01 -0.14,0 -0.15,-0.01 -0.16,0 -0.16,0 -0.16,0 -0.17,-0.01 -0.18,0 -0.18,0 c -0.85,0 -1.35,0 -1.35,-0.99 0,-0.55 0.45,-0.55 1.35,-0.55 h 17.78 c 7.87,0 13.75,5.88 13.75,10.76 0,3.59 -2.89,6.47 -7.72,7.03 5.18,0.94 10.41,4.62 10.41,9.36 0,3.69 -3.29,6.87 -9.26,6.87 l -0.7,-1.54 c 4.38,0 5.42,-2.94 5.42,-5.13 0,-4.39 -4.28,-9.12 -10.35,-9.12 h -7.28 l -0.3,-1.09 h 9.42 c 4.78,0 5.73,-3.69 5.73,-5.83 0,-4.93 -4.44,-9.77 -10.32,-9.77 h -6.77 c -0.7,0 -0.8,0 -1.09,0.05 -0.5,0.05 -0.65,0.11 -0.65,0.5 0,0.15 0,0.25 0.25,1.15 l 3.43,13.9 0.3,1.09 3.09,12.36 c 0.45,1.74 0.55,1.89 2.69,1.89 h 6.43 l 0.7,1.54 h -16.74 c -0.95,0 -1.45,0 -1.45,-0.99 0,-0.55 0.45,-0.55 1.39,-0.55 0.11,0 1.05,0 1.9,-0.1 0.9,-0.1 1.34,-0.15 1.34,-0.8 0,-0.2 -0.05,-0.35 -0.19,-0.94 z"
           style="fill:#000000;stroke-width:0" /><path
           id="path2891"
           d="m 811.68,284.7 -0.03,-0.12 -0.04,-0.11 -0.05,-0.12 -0.04,-0.13 -0.06,-0.12 -0.06,-0.13 -0.06,-0.12 -0.07,-0.13 -0.07,-0.13 -0.07,-0.13 -0.08,-0.13 -0.09,-0.12 -0.09,-0.13 -0.09,-0.12 -0.1,-0.12 -0.1,-0.12 -0.11,-0.12 -0.11,-0.11 -0.11,-0.1 -0.12,-0.1 -0.12,-0.1 -0.13,-0.09 -0.13,-0.08 -0.13,-0.08 -0.14,-0.07 -0.14,-0.06 -0.15,-0.05 -0.15,-0.05 -0.15,-0.03 -0.16,-0.03 -0.16,-0.02 -0.16,0 c -0.11,0 -1.16,0 -1.89,0.49 1.43,0.45 1.53,1.7 1.53,1.92 0,0.76 -0.58,1.28 -1.39,1.28 -0.98,0 -1.99,-0.83 -1.99,-2.12 0,-1.75 1.95,-2.55 3.67,-2.55 1.6,0 3.03,1.01 3.9,2.48 0.84,-1.85 2.76,-2.48 4.15,-2.48 4.01,0 6.14,4.36 6.14,5.33 0,0.46 -0.46,0.46 -0.56,0.46 -0.49,0 -0.52,-0.17 -0.67,-0.59 -0.73,-2.41 -2.82,-4.22 -4.77,-4.22 -1.4,0 -2.13,0.94 -2.13,2.26 0,0.91 0.84,4.08 1.82,7.95 0.69,2.69 2.26,3.56 3.41,3.56 0.07,0 1.15,0 1.89,-0.49 -1.12,-0.31 -1.54,-1.29 -1.54,-1.91 0,-0.77 0.59,-1.3 1.4,-1.3 0.8,0 1.95,0.67 1.95,2.13 0,1.96 -2.23,2.55 -3.63,2.55 -1.74,0 -3.14,-1.15 -3.9,-2.48 -0.63,1.43 -2.23,2.48 -4.19,2.48 -3.9,0 -6.13,-4.29 -6.13,-5.34 0,-0.45 0.49,-0.45 0.59,-0.45 0.45,0 0.49,0.14 0.66,0.59 0.87,2.72 3.07,4.22 4.78,4.22 1.15,0 2.09,-0.63 2.09,-2.3 0,-0.7 -0.42,-2.44 -0.73,-3.63 z"
           style="fill:#000000;stroke-width:0" /><path
           id="path2893"
           d="m 885.97,292.89 -0.05,-0.18 -0.04,-0.17 -0.04,-0.16 -0.05,-0.15 -0.04,-0.15 -0.05,-0.13 -0.04,-0.13 -0.06,-0.12 -0.05,-0.11 -0.06,-0.11 -0.06,-0.1 -0.08,-0.09 -0.07,-0.09 -0.09,-0.07 -0.09,-0.08 -0.11,-0.06 -0.11,-0.07 -0.13,-0.05 -0.13,-0.05 -0.15,-0.05 -0.16,-0.04 -0.09,-0.02 -0.09,-0.02 -0.09,-0.01 -0.1,-0.02 -0.1,-0.01 -0.1,-0.01 -0.11,-0.02 -0.12,-0.01 -0.11,-0.01 -0.13,-0.01 -0.12,-0.01 -0.13,0 -0.14,-0.01 -0.14,-0.01 -0.14,0 -0.15,-0.01 -0.16,0 -0.16,0 -0.16,0 -0.17,-0.01 -0.18,0 -0.18,0 c -0.85,0 -1.35,0 -1.35,-0.99 0,-0.55 0.45,-0.55 1.35,-0.55 h 17.78 c 7.87,0 13.75,5.88 13.75,10.76 0,3.59 -2.89,6.47 -7.72,7.03 5.18,0.94 10.41,4.62 10.41,9.36 0,3.69 -3.29,6.87 -9.26,6.87 l -0.7,-1.54 c 4.38,0 5.42,-2.94 5.42,-5.13 0,-4.39 -4.28,-9.12 -10.35,-9.12 h -7.28 l -0.3,-1.09 h 9.42 c 4.78,0 5.73,-3.69 5.73,-5.83 0,-4.93 -4.44,-9.77 -10.32,-9.77 h -6.77 c -0.7,0 -0.8,0 -1.09,0.05 -0.5,0.05 -0.65,0.11 -0.65,0.5 0,0.15 0,0.25 0.25,1.15 l 3.43,13.9 0.3,1.09 3.09,12.36 c 0.45,1.74 0.55,1.89 2.69,1.89 h 6.43 l 0.7,1.54 h -16.74 c -0.95,0 -1.45,0 -1.45,-0.99 0,-0.55 0.45,-0.55 1.39,-0.55 0.11,0 1.05,0 1.9,-0.1 0.9,-0.1 1.34,-0.15 1.34,-0.8 0,-0.2 -0.05,-0.35 -0.19,-0.94 z"
           style="fill:#000000;stroke-width:0" /><path
           id="path2895"
           d="m 935.39,294.14 0,0.03 0.01,0.02 0.01,0.02 0,0.02 0.01,0.02 0,0.02 0.01,0.04 0.01,0.04 0.01,0.03 0.01,0.03 0.01,0.03 0.01,0.03 0,0.03 0.01,0.02 0,0.03 0.01,0.02 0,0.02 0.01,0.02 0,0.02 0,0.02 0.01,0.02 0,0.02 0,0.02 0,0.03 0,0.03 0.01,0.04 0,0.03 0,0.02 0,0.02 0,0.01 0,0.02 c 0,0.7 -0.56,1.12 -1.15,1.12 -0.39,0 -1.05,-0.17 -1.43,-0.84 -0.11,-0.21 -0.39,-1.32 -0.56,-2.02 l -0.73,-2.9 c -0.21,-0.83 -1.29,-5.23 -1.4,-5.61 -0.03,0 -1.57,-3.03 -4.29,-3.03 -2.37,0 -2.37,2.26 -2.37,2.89 0,1.89 0.8,4.08 1.85,6.77 0.42,1.11 0.59,1.53 0.59,2.12 0,1.68 -1.43,2.97 -3.31,2.97 -3.52,0 -5.09,-4.74 -5.09,-5.34 0,-0.45 0.49,-0.45 0.59,-0.45 0.49,0 0.52,0.17 0.63,0.56 0.87,2.89 2.37,4.25 3.76,4.25 0.6,0 0.88,-0.38 0.88,-1.22 0,-0.8 -0.32,-1.57 -0.49,-2.02 -1.67,-4.26 -2.03,-5.55 -2.03,-7.08 0,-0.59 0,-2.23 1.37,-3.35 1.08,-0.91 2.54,-1.08 3.48,-1.08 1.4,0 2.65,0.53 3.8,1.57 -0.45,-1.92 -0.83,-3.38 -2.3,-5.13 -0.94,-1.07 -2.33,-2.23 -4.18,-2.23 -0.25,0 -1.88,0 -2.62,1.16 1.88,0.2 1.88,1.88 1.88,1.91 0,1.12 -1,1.33 -1.36,1.33 -0.87,0 -2.02,-0.7 -2.02,-2.3 0,-1.78 1.68,-3.07 4.15,-3.07 3.52,0 7.81,2.72 8.89,7.07 z"
           style="fill:#000000;stroke-width:0" /><path
           id="path2897"
           d="m 997.97,292.89 -0.05,-0.18 -0.04,-0.17 -0.04,-0.16 -0.05,-0.15 -0.04,-0.15 -0.05,-0.13 -0.04,-0.13 -0.06,-0.12 -0.05,-0.11 -0.06,-0.11 -0.06,-0.1 -0.08,-0.09 -0.07,-0.09 -0.09,-0.07 -0.09,-0.08 -0.11,-0.06 -0.11,-0.07 -0.13,-0.05 -0.13,-0.05 -0.15,-0.05 -0.16,-0.04 -0.09,-0.02 -0.09,-0.02 -0.09,-0.01 -0.1,-0.02 -0.1,-0.01 -0.1,-0.01 -0.11,-0.02 -0.12,-0.01 -0.11,-0.01 -0.13,-0.01 -0.12,-0.01 -0.13,0 -0.14,-0.01 -0.14,-0.01 -0.14,0 -0.15,-0.01 -0.16,0 -0.16,0 -0.16,0 -0.17,-0.01 -0.18,0 -0.18,0 c -0.85,0 -1.35,0 -1.35,-0.99 0,-0.55 0.45,-0.55 1.35,-0.55 h 17.76 c 7.9,0 13.8,5.88 13.8,10.76 0,3.59 -2.9,6.47 -7.8,7.03 5.2,0.94 10.5,4.62 10.5,9.36 0,3.69 -3.3,6.87 -9.3,6.87 l -0.7,-1.54 c 4.4,0 5.4,-2.94 5.4,-5.13 0,-4.39 -4.3,-9.12 -10.3,-9.12 h -7.3 l -0.3,-1.09 h 9.4 c 4.8,0 5.7,-3.69 5.7,-5.83 0,-4.93 -4.4,-9.77 -10.3,-9.77 h -6.8 c -0.7,0 -0.7,0 -1,0.05 -0.5,0.05 -0.7,0.11 -0.7,0.5 0,0.15 0,0.25 0.3,1.15 l 3.4,13.9 0.3,1.09 3.1,12.36 c 0.4,1.74 0.5,1.89 2.7,1.89 h 6.4 l 0.7,1.54 h -16.7 c -1,0 -1.5,0 -1.5,-0.99 0,-0.55 0.5,-0.55 1.4,-0.55 0.1,0 1.1,0 1.9,-0.1 0.9,-0.1 1.3,-0.15 1.3,-0.8 0,-0.2 0,-0.35 -0.2,-0.94 z"
           style="fill:#000000;stroke-width:0" /><path
           id="path2899"
           d="m 1032.9,284.07 0.1,0.17 0.2,0.16 0.2,0.17 0.1,0.16 0.2,0.18 0.1,0.09 0.1,0.09 0.1,0.09 0.1,0.1 0.1,0.1 0.1,0.11 0.2,0.11 0.1,0.11 0.1,0.12 0.2,0.13 0.1,0.13 0.2,0.14 0.2,0.14 0.1,0.15 0.2,0.16 0.2,0.16 0.2,0.17 0.3,0.19 0.2,0.18 0.2,0.2 0.3,0.21 0.3,0.22 c 0.7,0.59 3.3,2.69 4.3,3.66 2.1,2.09 3.5,3.87 3.5,4.29 0,0.42 -0.5,0.42 -0.6,0.42 -0.3,0 -0.4,-0.07 -0.6,-0.35 -1.1,-1.6 -1.8,-2.13 -2.7,-2.13 -0.4,0 -0.9,0.04 -2,1.05 -1.1,1.18 -1.9,1.43 -2.7,1.43 -2.8,0 -4.7,-3.04 -4.7,-4.08 0,-0.32 0.4,-0.42 0.6,-0.42 0.4,0 0.5,0.1 0.6,0.49 0.6,1.22 2.5,1.29 3.1,1.29 0.8,0 1.7,-0.21 2.2,-0.32 1.9,-0.41 2.1,-0.41 3,-0.41 -0.9,-0.95 -1.5,-1.57 -4.8,-4.22 -2.8,-2.17 -3.7,-3.04 -4.4,-3.73 -2.1,-2.06 -3.1,-3.6 -3.1,-3.91 0,-0.42 0.5,-0.42 0.6,-0.42 0.4,0 0.4,0.07 0.6,0.35 0.9,1.32 2,2.13 3.2,2.13 0.4,0 1,-0.04 1.9,-0.91 1.1,-1.04 1.8,-1.57 2.9,-1.57 3.7,0 6.1,4.22 6.1,5.4 0,0.42 -0.4,0.46 -0.6,0.46 -0.4,0 -0.5,-0.17 -0.7,-0.56 -0.6,-1.74 -2.7,-2.58 -4.4,-2.58 -0.8,0 -1.7,0.18 -2.5,0.38 -1.6,0.35 -1.9,0.35 -2.5,0.35 -0.1,0 -0.6,0 -0.8,-0.03 z"
           style="fill:#000000;stroke-width:0" /><path
           id="path2901"
           d="m 1057.2,423.91 0,-0.15 0,-0.16 0,-0.16 0,-0.08 0,-0.07 0,-0.08 0.1,-0.08 0,-0.08 0,-0.07 0,-0.08 0,-0.07 0,-0.07 0.1,-0.07 0,-0.07 0,-0.06 0,-0.06 0.1,-0.06 0,-0.06 0.1,-0.05 0,-0.04 0.1,-0.05 0,-0.02 0,-0.02 0.1,-0.02 0,-0.01 0,-0.02 0.1,-0.01 0,-0.02 0,-0.01 0.1,-0.01 0,-0.01 0,-0.01 0.1,0 0,-0.01 0.1,0 0,0 0.1,0 c 1.1,0 1.1,0.99 1.1,1.84 v 28.29 c 0,0.8 0,1.85 -1.1,1.85 -1.1,0 -1.1,-1 -1.1,-1.85 z"
           style="fill:#000000;stroke-width:0" /><path
           id="path2903"
           d="m 1057.2,393.91 0,-0.15 0,-0.16 0,-0.16 0,-0.08 0,-0.07 0,-0.08 0.1,-0.08 0,-0.08 0,-0.07 0,-0.08 0,-0.07 0,-0.07 0.1,-0.07 0,-0.07 0,-0.06 0,-0.06 0.1,-0.06 0,-0.06 0.1,-0.05 0,-0.04 0.1,-0.05 0,-0.02 0,-0.02 0.1,-0.02 0,-0.01 0,-0.02 0.1,-0.01 0,-0.02 0,-0.01 0.1,-0.01 0,-0.01 0,-0.01 0.1,0 0,-0.01 0.1,0 0,0 0.1,0 c 1.1,0 1.1,0.99 1.1,1.84 v 28.29 c 0,0.8 0,1.85 -1.1,1.85 -1.1,0 -1.1,-1 -1.1,-1.85 z"
           style="fill:#000000;stroke-width:0" /><path
           id="path2905"
           d="m 1057.2,363.91 0,-0.15 0,-0.16 0,-0.16 0,-0.08 0,-0.07 0,-0.08 0.1,-0.08 0,-0.08 0,-0.07 0,-0.08 0,-0.07 0,-0.07 0.1,-0.07 0,-0.07 0,-0.06 0,-0.06 0.1,-0.06 0,-0.06 0.1,-0.05 0,-0.04 0.1,-0.05 0,-0.02 0,-0.02 0.1,-0.02 0,-0.01 0,-0.02 0.1,-0.01 0,-0.02 0,-0.01 0.1,-0.01 0,-0.01 0,-0.01 0.1,0 0,-0.01 0.1,0 0,0 0.1,0 c 1.1,0 1.1,0.99 1.1,1.84 v 28.29 c 0,0.8 0,1.85 -1.1,1.85 -1.1,0 -1.1,-1 -1.1,-1.85 z"
           style="fill:#000000;stroke-width:0" /><path
           id="path2907"
           d="m 1057.2,333.91 0,-0.15 0,-0.16 0,-0.16 0,-0.08 0,-0.07 0,-0.08 0.1,-0.08 0,-0.08 0,-0.07 0,-0.08 0,-0.07 0,-0.07 0.1,-0.07 0,-0.07 0,-0.06 0,-0.06 0.1,-0.06 0,-0.06 0.1,-0.05 0,-0.04 0.1,-0.05 0,-0.02 0,-0.02 0.1,-0.02 0,-0.01 0,-0.02 0.1,-0.01 0,-0.02 0,-0.01 0.1,-0.01 0,-0.01 0,-0.01 0.1,0 0,-0.01 0.1,0 0,0 0.1,0 c 1.1,0 1.1,0.99 1.1,1.84 v 28.29 c 0,0.8 0,1.85 -1.1,1.85 -1.1,0 -1.1,-1 -1.1,-1.85 z"
           style="fill:#000000;stroke-width:0" /><path
           id="path2909"
           d="m 1057.2,303.91 0,-0.15 0,-0.16 0,-0.16 0,-0.08 0,-0.07 0,-0.08 0.1,-0.08 0,-0.08 0,-0.07 0,-0.08 0,-0.07 0,-0.07 0.1,-0.07 0,-0.07 0,-0.06 0,-0.06 0.1,-0.06 0,-0.06 0.1,-0.05 0,-0.04 0.1,-0.05 0,-0.02 0,-0.02 0.1,-0.02 0,-0.01 0,-0.02 0.1,-0.01 0,-0.02 0,-0.01 0.1,-0.01 0,-0.01 0,-0.01 0.1,0 0,-0.01 0.1,0 0,0 0.1,0 c 1.1,0 1.1,0.99 1.1,1.84 v 28.29 c 0,0.8 0,1.85 -1.1,1.85 -1.1,0 -1.1,-1 -1.1,-1.85 z"
           style="fill:#000000;stroke-width:0" /><path
           id="path2911"
           d="m 1057.2,274.91 0,-0.15 0,-0.16 0,-0.16 0,-0.08 0,-0.07 0,-0.08 0.1,-0.08 0,-0.08 0,-0.07 0,-0.08 0,-0.07 0,-0.07 0.1,-0.07 0,-0.07 0,-0.06 0,-0.06 0.1,-0.06 0,-0.06 0.1,-0.05 0,-0.04 0.1,-0.05 0,-0.02 0,-0.02 0.1,-0.02 0,-0.01 0,-0.02 0.1,-0.01 0,-0.02 0,-0.01 0.1,-0.01 0,-0.01 0,-0.01 0.1,0 0,-0.01 0.1,0 0,0 0.1,0 c 1.1,0 1.1,0.99 1.1,1.84 v 28.29 c 0,0.8 0,1.85 -1.1,1.85 -1.1,0 -1.1,-1 -1.1,-1.85 z"
           style="fill:#000000;stroke-width:0" /><path
           id="path2913"
           d="m 1083.9,356.73 -0.2,-0.31 -0.2,-0.29 -0.1,-0.27 -0.2,-0.26 -0.2,-0.25 -0.2,-0.23 -0.2,-0.23 -0.2,-0.2 -0.2,-0.2 -0.1,-0.18 -0.2,-0.17 -0.2,-0.16 -0.2,-0.15 -0.2,-0.14 -0.2,-0.13 -0.2,-0.12 -0.2,-0.11 -0.1,-0.1 -0.2,-0.09 -0.2,-0.09 -0.2,-0.07 -0.2,-0.07 -0.2,-0.06 -0.2,-0.06 -0.2,-0.05 -0.2,-0.04 -0.2,-0.04 -0.2,-0.03 -0.4,-0.05 -0.4,-0.04 c -0.6,-0.04 -1.1,-0.04 -1.1,-0.99 0,-0.3 0.3,-0.55 0.7,-0.55 h 9.3 c 0.3,0 0.9,0 0.9,0.95 0,0.55 -0.4,0.59 -0.8,0.59 -1.1,0.1 -2.3,0.5 -2.3,1.75 0,0.6 0.3,1.14 0.7,1.84 l 3.7,6.38 h 12.5 l -0.1,1.54 h -11.4 l 9.8,16.44 1.6,-16.44 0.1,-1.54 c 0.2,-1.05 0.8,-7.82 0.8,-8.32 0,-1.49 -2.5,-1.65 -3.5,-1.65 -0.7,0 -1.2,0 -1.2,-0.99 0,-0.55 0.6,-0.55 0.7,-0.55 h 11.8 c 0.3,0 0.9,0 0.9,1 0,0.54 -0.5,0.54 -1.1,0.54 -3.1,0 -3.1,0.35 -3.3,1.8 l -3,31.13 c -0.1,1 -0.1,1.2 -0.9,1.2 -0.8,0 -1,-0.35 -1.4,-0.85 z"
           style="fill:#000000;stroke-width:0" /><path
           id="path2915"
           d="m 1121.7,347.7 -0.1,-0.12 0,-0.11 0,-0.12 -0.1,-0.13 0,-0.12 -0.1,-0.13 -0.1,-0.12 0,-0.13 -0.1,-0.13 -0.1,-0.13 -0.1,-0.13 0,-0.12 -0.1,-0.13 -0.1,-0.12 -0.1,-0.12 -0.1,-0.12 -0.1,-0.12 -0.1,-0.11 -0.2,-0.1 -0.1,-0.1 -0.1,-0.1 -0.1,-0.09 -0.1,-0.08 -0.2,-0.08 -0.1,-0.07 -0.2,-0.06 -0.1,-0.05 -0.2,-0.05 -0.1,-0.03 -0.2,-0.03 -0.1,-0.02 -0.2,0 c -0.1,0 -1.2,0 -1.9,0.49 1.4,0.45 1.6,1.7 1.6,1.92 0,0.76 -0.6,1.28 -1.4,1.28 -1,0 -2,-0.83 -2,-2.12 0,-1.75 1.9,-2.55 3.6,-2.55 1.6,0 3.1,1.01 3.9,2.48 0.9,-1.85 2.8,-2.48 4.2,-2.48 4,0 6.1,4.36 6.1,5.33 0,0.46 -0.4,0.46 -0.5,0.46 -0.5,0 -0.6,-0.17 -0.7,-0.59 -0.7,-2.41 -2.8,-4.22 -4.8,-4.22 -1.4,0 -2.1,0.94 -2.1,2.26 0,0.91 0.8,4.08 1.8,7.95 0.7,2.69 2.3,3.56 3.4,3.56 0.1,0 1.2,0 1.9,-0.49 -1.1,-0.31 -1.5,-1.29 -1.5,-1.91 0,-0.77 0.6,-1.3 1.4,-1.3 0.8,0 1.9,0.67 1.9,2.13 0,1.96 -2.2,2.55 -3.6,2.55 -1.7,0 -3.1,-1.15 -3.9,-2.48 -0.6,1.43 -2.2,2.48 -4.2,2.48 -3.9,0 -6.1,-4.29 -6.1,-5.34 0,-0.45 0.5,-0.45 0.6,-0.45 0.4,0 0.5,0.14 0.6,0.59 0.9,2.72 3.1,4.22 4.8,4.22 1.2,0 2.1,-0.63 2.1,-2.3 0,-0.7 -0.4,-2.44 -0.7,-3.63 z"
           style="fill:#000000;stroke-width:0" /><path
           id="path2917"
           d="m 1196.9,356.73 -0.2,-0.31 -0.2,-0.29 -0.1,-0.27 -0.2,-0.26 -0.2,-0.25 -0.2,-0.23 -0.2,-0.23 -0.2,-0.2 -0.2,-0.2 -0.1,-0.18 -0.2,-0.17 -0.2,-0.16 -0.2,-0.15 -0.2,-0.14 -0.2,-0.13 -0.2,-0.12 -0.2,-0.11 -0.1,-0.1 -0.2,-0.09 -0.2,-0.09 -0.2,-0.07 -0.2,-0.07 -0.2,-0.06 -0.2,-0.06 -0.2,-0.05 -0.2,-0.04 -0.2,-0.04 -0.2,-0.03 -0.4,-0.05 -0.4,-0.04 c -0.6,-0.04 -1.1,-0.04 -1.1,-0.99 0,-0.3 0.3,-0.55 0.7,-0.55 h 9.3 c 0.3,0 0.9,0 0.9,0.95 0,0.55 -0.4,0.59 -0.8,0.59 -1.1,0.1 -2.3,0.5 -2.3,1.75 0,0.6 0.3,1.14 0.7,1.84 l 3.7,6.38 h 12.5 l -0.1,1.54 h -11.4 l 9.8,16.44 1.6,-16.44 0.1,-1.54 c 0.2,-1.05 0.8,-7.82 0.8,-8.32 0,-1.49 -2.5,-1.65 -3.5,-1.65 -0.7,0 -1.2,0 -1.2,-0.99 0,-0.55 0.6,-0.55 0.7,-0.55 h 11.8 c 0.3,0 0.9,0 0.9,1 0,0.54 -0.5,0.54 -1.1,0.54 -3.1,0 -3.1,0.35 -3.3,1.8 l -3,31.13 c -0.1,1 -0.1,1.2 -0.9,1.2 -0.8,0 -1,-0.35 -1.4,-0.85 z"
           style="fill:#000000;stroke-width:0" /><path
           id="path2919"
           d="m 1244.4,357.14 0,0.03 0,0.02 0,0.02 0,0.02 0,0.02 0,0.02 0,0.04 0,0.04 0.1,0.03 0,0.03 0,0.03 0,0.03 0,0.03 0,0.02 0,0.03 0,0.02 0,0.02 0,0.02 0,0.02 0,0.02 0,0.02 0,0.02 0,0.02 0,0.03 0,0.03 0,0.04 0,0.03 0,0.02 0,0.02 0,0.01 0,0.02 c 0,0.7 -0.5,1.12 -1.1,1.12 -0.4,0 -1.1,-0.17 -1.5,-0.84 -0.1,-0.21 -0.3,-1.32 -0.5,-2.02 l -0.7,-2.9 c -0.3,-0.83 -1.3,-5.23 -1.4,-5.61 -0.1,0 -1.6,-3.03 -4.3,-3.03 -2.4,0 -2.4,2.26 -2.4,2.89 0,1.89 0.8,4.08 1.8,6.77 0.5,1.11 0.6,1.53 0.6,2.12 0,1.68 -1.4,2.97 -3.3,2.97 -3.5,0 -5.1,-4.74 -5.1,-5.34 0,-0.45 0.5,-0.45 0.6,-0.45 0.5,0 0.6,0.17 0.7,0.56 0.8,2.89 2.3,4.25 3.7,4.25 0.6,0 0.9,-0.38 0.9,-1.22 0,-0.8 -0.3,-1.57 -0.5,-2.02 -1.7,-4.26 -2,-5.55 -2,-7.08 0,-0.59 0,-2.23 1.3,-3.35 1.1,-0.91 2.6,-1.08 3.5,-1.08 1.4,0 2.7,0.53 3.8,1.57 -0.4,-1.92 -0.8,-3.38 -2.3,-5.13 -0.9,-1.07 -2.3,-2.23 -4.1,-2.23 -0.3,0 -1.9,0 -2.7,1.16 1.9,0.2 1.9,1.88 1.9,1.91 0,1.12 -1,1.33 -1.3,1.33 -0.9,0 -2.1,-0.7 -2.1,-2.3 0,-1.78 1.7,-3.07 4.2,-3.07 3.5,0 7.8,2.72 8.9,7.07 z"
           style="fill:#000000;stroke-width:0" /><path
           id="path2921"
           d="m 1308.9,356.73 -0.2,-0.31 -0.2,-0.29 -0.1,-0.27 -0.2,-0.26 -0.2,-0.25 -0.2,-0.23 -0.2,-0.23 -0.2,-0.2 -0.2,-0.2 -0.1,-0.18 -0.2,-0.17 -0.2,-0.16 -0.2,-0.15 -0.2,-0.14 -0.2,-0.13 -0.2,-0.12 -0.2,-0.11 -0.1,-0.1 -0.2,-0.09 -0.2,-0.09 -0.2,-0.07 -0.2,-0.07 -0.2,-0.06 -0.2,-0.06 -0.2,-0.05 -0.2,-0.04 -0.2,-0.04 -0.2,-0.03 -0.4,-0.05 -0.4,-0.04 c -0.6,-0.04 -1.1,-0.04 -1.1,-0.99 0,-0.3 0.3,-0.55 0.7,-0.55 h 9.3 c 0.3,0 0.9,0 0.9,0.95 0,0.55 -0.4,0.59 -0.8,0.59 -1.1,0.1 -2.3,0.5 -2.3,1.75 0,0.6 0.3,1.14 0.7,1.84 l 3.7,6.38 h 12.5 l -0.1,1.54 h -11.4 l 9.8,16.44 1.6,-16.44 0.1,-1.54 c 0.2,-1.05 0.8,-7.82 0.8,-8.32 0,-1.49 -2.5,-1.65 -3.5,-1.65 -0.7,0 -1.2,0 -1.2,-0.99 0,-0.55 0.6,-0.55 0.7,-0.55 h 11.8 c 0.3,0 0.9,0 0.9,1 0,0.54 -0.5,0.54 -1.1,0.54 -3.1,0 -3.1,0.35 -3.3,1.8 l -3,31.13 c -0.1,1 -0.1,1.2 -0.9,1.2 -0.8,0 -1,-0.35 -1.4,-0.85 z"
           style="fill:#000000;stroke-width:0" /><path
           id="path2923"
           d="m 1342.9,347.07 0.1,0.17 0.2,0.16 0.2,0.17 0.1,0.16 0.2,0.18 0.1,0.09 0.1,0.09 0.1,0.09 0.1,0.1 0.1,0.1 0.1,0.11 0.2,0.11 0.1,0.11 0.1,0.12 0.2,0.13 0.1,0.13 0.2,0.14 0.2,0.14 0.1,0.15 0.2,0.16 0.2,0.16 0.2,0.17 0.3,0.19 0.2,0.18 0.2,0.2 0.3,0.21 0.3,0.22 c 0.7,0.59 3.3,2.69 4.3,3.66 2.1,2.09 3.5,3.87 3.5,4.29 0,0.42 -0.5,0.42 -0.6,0.42 -0.3,0 -0.4,-0.07 -0.6,-0.35 -1.1,-1.6 -1.8,-2.13 -2.7,-2.13 -0.4,0 -0.9,0.04 -2,1.05 -1.1,1.18 -1.9,1.43 -2.7,1.43 -2.8,0 -4.7,-3.04 -4.7,-4.08 0,-0.32 0.4,-0.42 0.6,-0.42 0.4,0 0.5,0.1 0.6,0.49 0.6,1.22 2.5,1.29 3.1,1.29 0.8,0 1.7,-0.21 2.2,-0.32 1.9,-0.41 2.1,-0.41 3,-0.41 -0.9,-0.95 -1.5,-1.57 -4.8,-4.22 -2.8,-2.17 -3.7,-3.04 -4.4,-3.73 -2.1,-2.06 -3.1,-3.6 -3.1,-3.91 0,-0.42 0.5,-0.42 0.6,-0.42 0.4,0 0.4,0.07 0.6,0.35 0.9,1.32 2,2.13 3.2,2.13 0.4,0 1,-0.04 1.9,-0.91 1.1,-1.04 1.8,-1.57 2.9,-1.57 3.7,0 6.1,4.22 6.1,5.4 0,0.42 -0.4,0.46 -0.6,0.46 -0.4,0 -0.5,-0.17 -0.7,-0.56 -0.6,-1.74 -2.7,-2.58 -4.4,-2.58 -0.8,0 -1.7,0.18 -2.5,0.38 -1.6,0.35 -1.9,0.35 -2.5,0.35 -0.1,0 -0.6,0 -0.8,-0.03 z"
           style="fill:#000000;stroke-width:0" /><path
           id="path2925"
           d="m 1083,295.89 -0.1,-0.18 0,-0.17 -0.1,-0.16 0,-0.15 -0.1,-0.15 0,-0.13 0,-0.13 -0.1,-0.12 -0.1,-0.11 0,-0.11 -0.1,-0.1 0,-0.09 -0.1,-0.09 -0.1,-0.07 -0.1,-0.08 -0.1,-0.06 -0.1,-0.07 -0.1,-0.05 -0.2,-0.05 -0.1,-0.05 -0.2,-0.04 -0.1,-0.02 -0.1,-0.02 -0.1,-0.01 -0.1,-0.02 -0.1,-0.01 -0.1,-0.01 -0.1,-0.02 -0.1,-0.01 -0.1,-0.01 -0.1,-0.01 -0.2,-0.01 -0.1,0 -0.1,-0.01 -0.2,-0.01 -0.1,0 -0.2,-0.01 -0.1,0 -0.2,0 -0.1,0 -0.2,-0.01 -0.2,0 -0.2,0 c -0.8,0 -1.3,0 -1.3,-0.99 0,-0.55 0.4,-0.55 1.3,-0.55 h 17.8 c 7.9,0 13.8,5.88 13.8,10.76 0,3.59 -2.9,6.47 -7.8,7.03 5.2,0.94 10.5,4.62 10.5,9.36 0,3.69 -3.3,6.87 -9.3,6.87 l -0.7,-1.54 c 4.4,0 5.4,-2.94 5.4,-5.13 0,-4.39 -4.3,-9.12 -10.3,-9.12 h -7.3 l -0.3,-1.09 h 9.4 c 4.8,0 5.7,-3.69 5.7,-5.83 0,-4.93 -4.4,-9.77 -10.3,-9.77 h -6.8 c -0.6,0 -0.8,0 -1,0.05 -0.5,0.05 -0.7,0.11 -0.7,0.5 0,0.15 0,0.25 0.3,1.15 l 3.4,13.9 0.3,1.09 3.1,12.36 c 0.4,1.74 0.5,1.89 2.7,1.89 h 6.4 l 0.7,1.54 h -16.7 c -1,0 -1.5,0 -1.5,-0.99 0,-0.55 0.5,-0.55 1.4,-0.55 0.1,0 1.1,0 1.9,-0.1 0.9,-0.1 1.3,-0.15 1.3,-0.8 0,-0.2 0,-0.35 -0.2,-0.94 z"
           style="fill:#000000;stroke-width:0" /><path
           id="path2927"
           d="m 1121.7,287.7 -0.1,-0.12 0,-0.11 0,-0.12 -0.1,-0.13 0,-0.12 -0.1,-0.13 -0.1,-0.12 0,-0.13 -0.1,-0.13 -0.1,-0.13 -0.1,-0.13 0,-0.12 -0.1,-0.13 -0.1,-0.12 -0.1,-0.12 -0.1,-0.12 -0.1,-0.12 -0.1,-0.11 -0.2,-0.1 -0.1,-0.1 -0.1,-0.1 -0.1,-0.09 -0.1,-0.08 -0.2,-0.08 -0.1,-0.07 -0.2,-0.06 -0.1,-0.05 -0.2,-0.05 -0.1,-0.03 -0.2,-0.03 -0.1,-0.02 -0.2,0 c -0.1,0 -1.2,0 -1.9,0.49 1.4,0.45 1.6,1.7 1.6,1.92 0,0.76 -0.6,1.28 -1.4,1.28 -1,0 -2,-0.83 -2,-2.12 0,-1.75 1.9,-2.55 3.6,-2.55 1.6,0 3.1,1.01 3.9,2.48 0.9,-1.85 2.8,-2.48 4.2,-2.48 4,0 6.1,4.36 6.1,5.33 0,0.46 -0.4,0.46 -0.5,0.46 -0.5,0 -0.6,-0.17 -0.7,-0.59 -0.7,-2.41 -2.8,-4.22 -4.8,-4.22 -1.4,0 -2.1,0.94 -2.1,2.26 0,0.91 0.8,4.08 1.8,7.95 0.7,2.69 2.3,3.56 3.4,3.56 0.1,0 1.2,0 1.9,-0.49 -1.1,-0.31 -1.5,-1.29 -1.5,-1.91 0,-0.77 0.6,-1.3 1.4,-1.3 0.8,0 1.9,0.67 1.9,2.13 0,1.96 -2.2,2.55 -3.6,2.55 -1.7,0 -3.1,-1.15 -3.9,-2.48 -0.6,1.43 -2.2,2.48 -4.2,2.48 -3.9,0 -6.1,-4.29 -6.1,-5.34 0,-0.45 0.5,-0.45 0.6,-0.45 0.4,0 0.5,0.14 0.6,0.59 0.9,2.72 3.1,4.22 4.8,4.22 1.2,0 2.1,-0.63 2.1,-2.3 0,-0.7 -0.4,-2.44 -0.7,-3.63 z"
           style="fill:#000000;stroke-width:0" /><path
           id="path2929"
           d="m 1196,295.89 -0.1,-0.18 0,-0.17 -0.1,-0.16 0,-0.15 -0.1,-0.15 0,-0.13 0,-0.13 -0.1,-0.12 -0.1,-0.11 0,-0.11 -0.1,-0.1 0,-0.09 -0.1,-0.09 -0.1,-0.07 -0.1,-0.08 -0.1,-0.06 -0.1,-0.07 -0.1,-0.05 -0.2,-0.05 -0.1,-0.05 -0.2,-0.04 -0.1,-0.02 -0.1,-0.02 -0.1,-0.01 -0.1,-0.02 -0.1,-0.01 -0.1,-0.01 -0.1,-0.02 -0.1,-0.01 -0.1,-0.01 -0.1,-0.01 -0.2,-0.01 -0.1,0 -0.1,-0.01 -0.2,-0.01 -0.1,0 -0.2,-0.01 -0.1,0 -0.2,0 -0.1,0 -0.2,-0.01 -0.2,0 -0.2,0 c -0.8,0 -1.3,0 -1.3,-0.99 0,-0.55 0.4,-0.55 1.3,-0.55 h 17.8 c 7.9,0 13.8,5.88 13.8,10.76 0,3.59 -2.9,6.47 -7.8,7.03 5.2,0.94 10.5,4.62 10.5,9.36 0,3.69 -3.3,6.87 -9.3,6.87 l -0.7,-1.54 c 4.4,0 5.4,-2.94 5.4,-5.13 0,-4.39 -4.3,-9.12 -10.3,-9.12 h -7.3 l -0.3,-1.09 h 9.4 c 4.8,0 5.7,-3.69 5.7,-5.83 0,-4.93 -4.4,-9.77 -10.3,-9.77 h -6.8 c -0.6,0 -0.8,0 -1,0.05 -0.5,0.05 -0.7,0.11 -0.7,0.5 0,0.15 0,0.25 0.3,1.15 l 3.4,13.9 0.3,1.09 3.1,12.36 c 0.4,1.74 0.5,1.89 2.7,1.89 h 6.4 l 0.7,1.54 h -16.7 c -1,0 -1.5,0 -1.5,-0.99 0,-0.55 0.5,-0.55 1.4,-0.55 0.1,0 1.1,0 1.9,-0.1 0.9,-0.1 1.3,-0.15 1.3,-0.8 0,-0.2 0,-0.35 -0.2,-0.94 z"
           style="fill:#000000;stroke-width:0" /><path
           id="path2931"
           d="m 1245.4,297.14 0,0.03 0,0.02 0,0.02 0,0.02 0,0.02 0,0.02 0,0.04 0,0.04 0.1,0.03 0,0.03 0,0.03 0,0.03 0,0.03 0,0.02 0,0.03 0,0.02 0,0.02 0,0.02 0,0.02 0,0.02 0,0.02 0,0.02 0,0.02 0,0.03 0,0.03 0,0.04 0,0.03 0,0.02 0,0.02 0,0.01 0,0.02 c 0,0.7 -0.5,1.12 -1.1,1.12 -0.4,0 -1.1,-0.17 -1.5,-0.84 -0.1,-0.21 -0.3,-1.32 -0.5,-2.02 l -0.7,-2.9 c -0.3,-0.83 -1.3,-5.23 -1.4,-5.61 -0.1,0 -1.6,-3.03 -4.3,-3.03 -2.4,0 -2.4,2.26 -2.4,2.89 0,1.89 0.8,4.08 1.8,6.77 0.5,1.11 0.6,1.53 0.6,2.12 0,1.68 -1.4,2.97 -3.3,2.97 -3.5,0 -5.1,-4.74 -5.1,-5.34 0,-0.45 0.5,-0.45 0.6,-0.45 0.5,0 0.6,0.17 0.7,0.56 0.8,2.89 2.3,4.25 3.7,4.25 0.6,0 0.9,-0.38 0.9,-1.22 0,-0.8 -0.3,-1.57 -0.5,-2.02 -1.7,-4.26 -2,-5.55 -2,-7.08 0,-0.59 0,-2.23 1.3,-3.35 1.1,-0.91 2.6,-1.08 3.5,-1.08 1.4,0 2.7,0.53 3.8,1.57 -0.4,-1.92 -0.8,-3.38 -2.3,-5.13 -0.9,-1.07 -2.3,-2.23 -4.1,-2.23 -0.3,0 -1.9,0 -2.7,1.16 1.9,0.2 1.9,1.88 1.9,1.91 0,1.12 -1,1.33 -1.3,1.33 -0.9,0 -2.1,-0.7 -2.1,-2.3 0,-1.78 1.7,-3.07 4.2,-3.07 3.5,0 7.8,2.72 8.9,7.07 z"
           style="fill:#000000;stroke-width:0" /><path
           id="path2933"
           d="m 1307,295.89 -0.1,-0.18 0,-0.17 -0.1,-0.16 0,-0.15 -0.1,-0.15 0,-0.13 0,-0.13 -0.1,-0.12 -0.1,-0.11 0,-0.11 -0.1,-0.1 0,-0.09 -0.1,-0.09 -0.1,-0.07 -0.1,-0.08 -0.1,-0.06 -0.1,-0.07 -0.1,-0.05 -0.2,-0.05 -0.1,-0.05 -0.2,-0.04 -0.1,-0.02 -0.1,-0.02 -0.1,-0.01 -0.1,-0.02 -0.1,-0.01 -0.1,-0.01 -0.1,-0.02 -0.1,-0.01 -0.1,-0.01 -0.1,-0.01 -0.2,-0.01 -0.1,0 -0.1,-0.01 -0.2,-0.01 -0.1,0 -0.2,-0.01 -0.1,0 -0.2,0 -0.1,0 -0.2,-0.01 -0.2,0 -0.2,0 c -0.8,0 -1.3,0 -1.3,-0.99 0,-0.55 0.4,-0.55 1.3,-0.55 h 17.8 c 7.9,0 13.8,5.88 13.8,10.76 0,3.59 -2.9,6.47 -7.8,7.03 5.2,0.94 10.5,4.62 10.5,9.36 0,3.69 -3.3,6.87 -9.3,6.87 l -0.7,-1.54 c 4.4,0 5.4,-2.94 5.4,-5.13 0,-4.39 -4.3,-9.12 -10.3,-9.12 h -7.3 l -0.3,-1.09 h 9.4 c 4.8,0 5.7,-3.69 5.7,-5.83 0,-4.93 -4.4,-9.77 -10.3,-9.77 h -6.8 c -0.6,0 -0.8,0 -1,0.05 -0.5,0.05 -0.7,0.11 -0.7,0.5 0,0.15 0,0.25 0.3,1.15 l 3.4,13.9 0.3,1.09 3.1,12.36 c 0.4,1.74 0.5,1.89 2.7,1.89 h 6.4 l 0.7,1.54 h -16.7 c -1,0 -1.5,0 -1.5,-0.99 0,-0.55 0.5,-0.55 1.4,-0.55 0.1,0 1.1,0 1.9,-0.1 0.9,-0.1 1.3,-0.15 1.3,-0.8 0,-0.2 0,-0.35 -0.2,-0.94 z"
           style="fill:#000000;stroke-width:0" /><path
           id="path2935"
           d="m 1342.9,287.07 0.1,0.17 0.2,0.16 0.2,0.17 0.1,0.16 0.2,0.18 0.1,0.09 0.1,0.09 0.1,0.09 0.1,0.1 0.1,0.1 0.1,0.11 0.2,0.11 0.1,0.11 0.1,0.12 0.2,0.13 0.1,0.13 0.2,0.14 0.2,0.14 0.1,0.15 0.2,0.16 0.2,0.16 0.2,0.17 0.3,0.19 0.2,0.18 0.2,0.2 0.3,0.21 0.3,0.22 c 0.7,0.59 3.3,2.69 4.3,3.66 2.1,2.09 3.5,3.87 3.5,4.29 0,0.42 -0.5,0.42 -0.6,0.42 -0.3,0 -0.4,-0.07 -0.6,-0.35 -1.1,-1.6 -1.8,-2.13 -2.7,-2.13 -0.4,0 -0.9,0.04 -2,1.05 -1.1,1.18 -1.9,1.43 -2.7,1.43 -2.8,0 -4.7,-3.04 -4.7,-4.08 0,-0.32 0.4,-0.42 0.6,-0.42 0.4,0 0.5,0.1 0.6,0.49 0.6,1.22 2.5,1.29 3.1,1.29 0.8,0 1.7,-0.21 2.2,-0.32 1.9,-0.41 2.1,-0.41 3,-0.41 -0.9,-0.95 -1.5,-1.57 -4.8,-4.22 -2.8,-2.17 -3.7,-3.04 -4.4,-3.73 -2.1,-2.06 -3.1,-3.6 -3.1,-3.91 0,-0.42 0.5,-0.42 0.6,-0.42 0.4,0 0.4,0.07 0.6,0.35 0.9,1.32 2,2.13 3.2,2.13 0.4,0 1,-0.04 1.9,-0.91 1.1,-1.04 1.8,-1.57 2.9,-1.57 3.7,0 6.1,4.22 6.1,5.4 0,0.42 -0.4,0.46 -0.6,0.46 -0.4,0 -0.5,-0.17 -0.7,-0.56 -0.6,-1.74 -2.7,-2.58 -4.4,-2.58 -0.8,0 -1.7,0.18 -2.5,0.38 -1.6,0.35 -1.9,0.35 -2.5,0.35 -0.1,0 -0.6,0 -0.8,-0.03 z"
           style="fill:#000000;stroke-width:0" /></g>    </g>
    <path
       sodipodi:nodetypes="cc"
       id="path3033"
       d="m 240.16564,77.67752 224.7101,122.28823"
       style="fill:none;stroke:#000000;stroke-width:1px;stroke-linecap:butt;stroke-linejoin:miter;stroke-opacity:1" />
    <path
       style="fill:none;stroke:#000000;stroke-width:1px;stroke-linecap:butt;stroke-linejoin:miter;stroke-opacity:1"
       d="M 322.87574,77.67752 98.16564,199.96575"
       id="path3076"
       sodipodi:nodetypes="cc" />
    <text
       xml:space="preserve"
       style="font-size:20px;font-style:normal;font-variant:normal;font-weight:bold;font-stretch:normal;text-align:start;line-height:100%;writing-mode:lr-tb;text-anchor:start;fill:#000000;fill-opacity:1;stroke:none;font-family:Times New Roman;-inkscape-font-specification:'Times New Roman, Bold'"
       x="229.799"
       y="73.499718"
       id="text3078"
       sodipodi:linespacing="100%"><tspan
         sodipodi:role="line"
         id="tspan3080"
         x="229.799"
         y="73.499718">+</tspan></text>
    <text
       sodipodi:linespacing="100%"
       id="text3082"
       y="73.499718"
       x="317.79901"
       style="font-size:20px;font-style:normal;font-variant:normal;font-weight:bold;font-stretch:normal;text-align:start;line-height:100%;writing-mode:lr-tb;text-anchor:start;fill:#000000;fill-opacity:1;stroke:none;font-family:Times New Roman;-inkscape-font-specification:'Times New Roman, Bold'"
       xml:space="preserve"><tspan
         y="73.499718"
         x="317.79901"
         id="tspan3084"
         sodipodi:role="line">-</tspan></text>
    <path
       style="fill:none;stroke:#fe0000;stroke-width:2;stroke-linecap:butt;stroke-linejoin:miter;stroke-miterlimit:4;stroke-opacity:1;stroke-dasharray:12, 12;stroke-dashoffset:0"
       d="m 310.16564,77.67752 224.7101,122.28823"
       id="path3086"
       sodipodi:nodetypes="cc" />
    <path
       sodipodi:nodetypes="cc"
       id="path3088"
       d="M 392.87574,77.67752 168.16564,199.96575"
       style="fill:none;stroke:#fe0000;stroke-width:2;stroke-linecap:butt;stroke-linejoin:miter;stroke-miterlimit:4;stroke-opacity:1;stroke-dasharray:12, 12;stroke-dashoffset:0" />
    <path
       sodipodi:nodetypes="cc"
       id="path3862"
       d="m 384.16564,77.67752 224.7101,122.28823"
       style="fill:none;stroke:#0000ff;stroke-width:2;stroke-linecap:butt;stroke-linejoin:miter;stroke-miterlimit:4;stroke-opacity:1;stroke-dasharray:2, 4;stroke-dashoffset:0" />
    <path
       style="fill:none;stroke:#0000ff;stroke-width:2;stroke-linecap:butt;stroke-linejoin:miter;stroke-miterlimit:4;stroke-opacity:1;stroke-dasharray:2, 4;stroke-dashoffset:0"
       d="M 466.87574,77.67752 242.16564,199.96575"
       id="path3864"
       sodipodi:nodetypes="cc" />
  </g>
</svg>
