<?xml version="1.0" encoding="UTF-8" standalone="no"?>
<!-- Created with Inkscape (http://www.inkscape.org/) -->

<svg
   xmlns:dc="http://purl.org/dc/elements/1.1/"
   xmlns:cc="http://creativecommons.org/ns#"
   xmlns:rdf="http://www.w3.org/1999/02/22-rdf-syntax-ns#"
   xmlns:svg="http://www.w3.org/2000/svg"
   xmlns="http://www.w3.org/2000/svg"
   xmlns:sodipodi="http://sodipodi.sourceforge.net/DTD/sodipodi-0.dtd"
   xmlns:inkscape="http://www.inkscape.org/namespaces/inkscape"
   width="238.625"
   height="161.03673"
   id="svg2"
   version="1.1"
   inkscape:version="0.48.3.1 r9886"
   sodipodi:docname="noinercial.pdf">
  <sodipodi:namedview
     id="base"
     pagecolor="#ffffff"
     bordercolor="#666666"
     borderopacity="1.0"
     inkscape:pageopacity="0.0"
     inkscape:pageshadow="2"
     inkscape:zoom="5.0027805"
     inkscape:cx="177.6105"
     inkscape:cy="86.454973"
     inkscape:document-units="px"
     inkscape:current-layer="layer1"
     showgrid="false"
     inkscape:window-width="1920"
     inkscape:window-height="1029"
     inkscape:window-x="-2"
     inkscape:window-y="-3"
     inkscape:window-maximized="1"
     fit-margin-top="0"
     fit-margin-left="0"
     fit-margin-right="0"
     fit-margin-bottom="0" />
  <defs
     id="defs4">
    <marker
       style="overflow:visible"
       id="Arrow1Lstart"
       refX="0"
       refY="0"
       orient="auto"
       inkscape:stockid="Arrow1Lstart">
      <path
         inkscape:connector-curvature="0"
         transform="matrix(0.8,0,0,0.8,10,0)"
         style="fill-rule:evenodd;stroke:#000000;stroke-width:1pt"
         d="M 0,0 5,-5 -12.5,0 5,5 0,0 z"
         id="path4041" />
    </marker>
    <marker
       inkscape:stockid="Arrow1Lend"
       orient="auto"
       refY="0"
       refX="0"
       id="Arrow1Lend"
       style="overflow:visible">
      <path
         inkscape:connector-curvature="0"
         id="path4044"
         d="M 0,0 5,-5 -12.5,0 5,5 0,0 z"
         style="fill-rule:evenodd;stroke:#000000;stroke-width:1pt"
         transform="matrix(-0.8,0,0,-0.8,-10,0)" />
    </marker>
    <marker
       inkscape:stockid="Arrow1Mend"
       orient="auto"
       refY="0"
       refX="0"
       id="Arrow1Mend"
       style="overflow:visible">
      <path
         inkscape:connector-curvature="0"
         id="path4050"
         d="M 0,0 5,-5 -12.5,0 5,5 0,0 z"
         style="fill-rule:evenodd;stroke:#000000;stroke-width:1pt"
         transform="matrix(-0.4,0,0,-0.4,-4,0)" />
    </marker>
  </defs>
  <metadata
     id="metadata7">
    <rdf:RDF>
      <cc:Work
         rdf:about="">
        <dc:format>image/svg+xml</dc:format>
        <dc:type
           rdf:resource="http://purl.org/dc/dcmitype/StillImage" />
        <dc:title></dc:title>
      </cc:Work>
    </rdf:RDF>
  </metadata>
  <g
     transform="translate(-151.875,-64.71327)"
     id="layer1"
     inkscape:groupmode="layer"
     inkscape:label="Capa 1">
    <path
       sodipodi:nodetypes="ccc"
       inkscape:connector-curvature="0"
       id="path2985"
       d="m 194.69933,116.84598 0,72.92425 -42.49632,35.60502"
       style="fill:none;stroke:#000000;stroke-width:1px;stroke-linecap:butt;stroke-linejoin:miter;stroke-opacity:1" />
    <path
       sodipodi:nodetypes="cc"
       inkscape:connector-curvature="0"
       id="path2987"
       d="m 194.98854,189.20405 47.55017,0"
       style="fill:none;stroke:#000000;stroke-width:1px;stroke-linecap:butt;stroke-linejoin:miter;stroke-opacity:1" />
    <path
       style="fill:none;stroke:#000000;stroke-width:1px;stroke-linecap:butt;stroke-linejoin:miter;stroke-opacity:1;marker-end:url(#Arrow1Lend)"
       d="M 195.23349,188.40614 340.78161,142.68228"
       id="path4994"
       inkscape:connector-curvature="0"
       sodipodi:nodetypes="cc" />
    <text
       xml:space="preserve"
       style="font-size:20px;font-style:normal;font-variant:normal;font-weight:normal;font-stretch:normal;text-align:start;line-height:125%;letter-spacing:0px;word-spacing:0px;writing-mode:lr-tb;text-anchor:start;fill:#000000;fill-opacity:1;stroke:none;font-family:DejaVu Serif;-inkscape-font-specification:DejaVu Serif"
       x="269.99042"
       y="180.69354"
       id="text3031"
       sodipodi:linespacing="125%"><tspan
         sodipodi:role="line"
         id="tspan3033"
         x="269.99042"
         y="180.69354"
         style="font-style:normal;font-variant:normal;font-weight:bold;font-stretch:normal;font-family:DejaVu Serif;-inkscape-font-specification:DejaVu Serif Bold">S</tspan></text>
    <path
       sodipodi:nodetypes="ccc"
       inkscape:connector-curvature="0"
       id="path2985-9"
       d="m 342.65985,69.511938 0,72.924252 -42.49632,35.60502"
       style="fill:none;stroke:#000000;stroke-width:1px;stroke-linecap:butt;stroke-linejoin:miter;stroke-opacity:1" />
    <path
       sodipodi:nodetypes="cc"
       inkscape:connector-curvature="0"
       id="path2987-8"
       d="m 342.94906,141.87001 47.55017,0"
       style="fill:none;stroke:#000000;stroke-width:1px;stroke-linecap:butt;stroke-linejoin:miter;stroke-opacity:1" />
    <path
       style="fill:none;stroke:#000000;stroke-width:1px;stroke-linecap:butt;stroke-linejoin:miter;stroke-opacity:1;marker-end:url(#Arrow1Lend)"
       d="M 343.61242,141.03016 381.3253,72.185572"
       id="path3113"
       inkscape:connector-curvature="0"
       sodipodi:nodetypes="cc" />
    <path
       sodipodi:nodetypes="cc"
       inkscape:connector-curvature="0"
       id="path2989"
       d="M 195.23349,188.40614 379.3513,70.869572"
       style="fill:none;stroke:#000000;stroke-width:1px;stroke-linecap:butt;stroke-linejoin:miter;stroke-opacity:1;marker-end:url(#Arrow1Lend)" />
    <path
       transform="translate(232.73015,-229.28673)"
       d="m 154.03428,300.05878 c 0,3.06255 -2.20684,5.54523 -4.9291,5.54523 -2.72227,0 -4.9291,-2.48268 -4.9291,-5.54523 0,-3.06255 2.20683,-5.54524 4.9291,-5.54524 2.72226,0 4.9291,2.48269 4.9291,5.54524 z"
       sodipodi:ry="5.5452342"
       sodipodi:rx="4.9290967"
       sodipodi:cy="300.05878"
       sodipodi:cx="149.10518"
       id="path4996"
       style="fill:#ff0000;fill-rule:evenodd;stroke:#000000;stroke-width:1px;stroke-linecap:butt;stroke-linejoin:miter;stroke-opacity:1"
       sodipodi:type="arc" />
    <g
       id="g3427"
       transform="matrix(0.49974479,0,0,0.49974479,211.14134,-26.259871)">
      <g
         id="content"
         transform="matrix(1.0928571,0,0,-1.0928571,-191.25,742.5)"
         xml:space="preserve"
         stroke-miterlimit="10.433"
         font-style="normal"
         font-variant="normal"
         font-weight="normal"
         font-stretch="normal"
         font-size-adjust="none"
         letter-spacing="normal"
         word-spacing="normal"
         style="font-style:normal;font-variant:normal;font-weight:normal;font-stretch:normal;letter-spacing:normal;word-spacing:normal;text-anchor:start;fill:none;stroke:#000000;stroke-linecap:butt;stroke-linejoin:miter;stroke-miterlimit:10.43299961;stroke-opacity:1;stroke-dasharray:none;stroke-dashoffset:0"><path
           d="m 465.63,423 v 5.62 l -8.27,-0.41 v -2.34 c 3.1,0 3.44,0 3.44,-1.94 v -15.39 h -3.44 v -2.34 c 1.75,0.05 3.99,0.16 6.28,0.16 1.9,0 5.08,0 6.88,-0.16 v 2.34 h -4.34 v 8.72 c 0,3.49 1.25,9.56 6.23,9.56 -0.05,-0.04 -0.95,-0.84 -0.95,-2.29 0,-2.03 1.59,-3.03 3.04,-3.03 1.44,0 3.04,1.04 3.04,3.03 0,2.64 -2.69,4.09 -5.29,4.09 -3.48,0 -5.46,-2.5 -6.62,-5.62 z"
           id="path3430"
           inkscape:connector-curvature="0"
           style="fill:#000000;stroke-width:0" /><path
           d="m 501.22,418.48 0,0.28 -0.03,0.28 -0.04,0.27 -0.05,0.26 -0.06,0.25 -0.08,0.24 -0.09,0.24 -0.11,0.23 -0.12,0.22 -0.13,0.21 -0.14,0.2 -0.15,0.2 -0.16,0.18 -0.17,0.18 -0.19,0.17 -0.19,0.16 -0.2,0.15 -0.21,0.14 -0.22,0.14 -0.22,0.12 -0.23,0.11 -0.24,0.11 -0.25,0.09 -0.25,0.09 -0.26,0.07 -0.26,0.07 -0.27,0.06 -0.27,0.04 -0.28,0.04 -0.28,0.02 -0.28,0.02 -0.29,0 -0.07,-0.96 c 2.06,0 3.48,-1.13 3.48,-3.25 h 0 c 0,-1.85 -0.91,-4.57 -3.06,-5.79 -0.66,0.22 -1.33,0.46 -3.27,0.46 -1.22,0 -2.97,-0.07 -2.97,-1.33 0,-0.86 1.08,-1 2.86,-1 l 0.07,0.94 c -0.55,0 -1.4,0.03 -1.63,0.17 0.34,0.2 1.31,0.25 1.63,0.25 0.53,0 1.29,-0.05 1.78,-0.17 h 0 c -0.52,-0.11 -0.77,-0.25 -1.78,-0.25 l -0.07,-0.94 c 1.19,0 2.24,0.17 3.32,0.48 1.04,-0.73 1.59,-2.15 1.59,-3.68 0,-5.07 -3.44,-8.83 -7.7,-8.83 -2.68,0 -4.6,1.64 -4.6,4.39 0,0.36 0.03,0.7 0.11,1.01 l 2.3,9.27 c 0.84,3.31 3.9,8.27 7.94,8.27 l 0.07,0.96 c -4.78,0 -8.29,-5.43 -9.17,-8.95 l -5.47,-21.95 c -0.06,-0.24 0.28,-0.42 0.49,-0.42 0.33,0 0.59,0.04 0.67,0.25 l 2.33,9.29 c 0.73,-1.59 2.4,-3.09 5.23,-3.09 4.88,0 10.38,3.51 10.38,8.84 0,2.07 -0.94,4.16 -2.72,5.3 1.72,1.08 3.98,3.08 3.98,5.89 z"
           id="path3432"
           inkscape:connector-curvature="0"
           style="fill:#000000;stroke-width:0" /></g>    </g>
    <g
       id="g3482"
       transform="matrix(0.48478554,0,0,0.48478554,102.69279,-15.620816)">
      <g
         word-spacing="normal"
         letter-spacing="normal"
         font-size-adjust="none"
         font-stretch="normal"
         font-weight="normal"
         font-variant="normal"
         font-style="normal"
         stroke-miterlimit="10.433"
         xml:space="preserve"
         transform="matrix(1.0928571,0,0,-1.0928571,-191.25,742.5)"
         id="g3484"
         style="font-style:normal;font-variant:normal;font-weight:normal;font-stretch:normal;letter-spacing:normal;word-spacing:normal;text-anchor:start;fill:none;stroke:#000000;stroke-linecap:butt;stroke-linejoin:miter;stroke-miterlimit:10.43299961;stroke-opacity:1;stroke-dasharray:none;stroke-dashoffset:0"><path
           id="path3486"
           d="m 465.63,423 v 5.62 l -8.27,-0.41 v -2.34 c 3.1,0 3.44,0 3.44,-1.94 v -15.39 h -3.44 v -2.34 c 1.75,0.05 3.99,0.16 6.28,0.16 1.9,0 5.08,0 6.88,-0.16 v 2.34 h -4.34 v 8.72 c 0,3.49 1.25,9.56 6.23,9.56 -0.05,-0.04 -0.95,-0.84 -0.95,-2.29 0,-2.03 1.59,-3.03 3.04,-3.03 1.44,0 3.04,1.04 3.04,3.03 0,2.64 -2.69,4.09 -5.29,4.09 -3.48,0 -5.46,-2.5 -6.62,-5.62 z"
           inkscape:connector-curvature="0"
           style="fill:#000000;stroke-width:0" /><path
           id="path3488"
           d="m 498.22,403.67 0.3,0.31 0.28,0.32 0.27,0.33 0.27,0.33 0.25,0.34 0.24,0.33 0.23,0.34 0.22,0.34 0.21,0.34 0.2,0.34 0.19,0.34 0.17,0.33 0.17,0.33 0.16,0.32 0.15,0.32 0.14,0.3 0.14,0.3 0.12,0.29 0.11,0.28 0.1,0.27 0.1,0.25 0.08,0.25 0.08,0.22 0.07,0.21 0.06,0.2 0.05,0.17 0.05,0.16 0.03,0.14 0.03,0.11 0.02,0.1 0.01,0.07 0,0.05 c 0,0.45 -0.42,0.45 -0.59,0.45 -0.5,0 -0.5,-0.09 -0.74,-0.86 -0.62,-2.31 -1.78,-4.44 -3.25,-6.31 -0.03,0.51 -0.09,2.86 -0.17,3.17 -0.51,3.45 -3.12,5.67 -6.61,5.67 l -0.04,-0.97 c 2.79,0 3.59,-2.69 3.87,-4.84 0.2,-1.5 0.14,-3.97 0.31,-5.81 h 0 c -3.42,-2.8 -6.37,-3.11 -7.7,-3.11 -2.3,0 -3.59,1.53 -3.59,3.87 0,1 0.5,4.8 2.31,7.2 1.59,2.1 3.58,2.69 4.8,2.69 l 0.04,0.97 c -5.12,0 -10.04,-4.76 -10.04,-9.64 0,-3.2 2.34,-6.06 6.37,-6.06 3.22,0 6.11,1.45 8.05,2.95 0.81,-2.55 2.59,-2.95 3.62,-2.95 2.03,0 3.28,1.7 3.28,2.44 0,0.42 -0.42,0.42 -0.59,0.42 -0.45,0 -0.51,-0.14 -0.59,-0.36 -0.49,-1.31 -1.57,-1.53 -1.99,-1.53 -0.48,0 -1.08,0 -1.25,4.28 z"
           inkscape:connector-curvature="0"
           style="fill:#000000;stroke-width:0" /></g>    </g>
  </g>
</svg>
