<?xml version="1.0" encoding="UTF-8" standalone="no"?>
<!-- Created with Inkscape (http://www.inkscape.org/) -->

<svg
   xmlns:dc="http://purl.org/dc/elements/1.1/"
   xmlns:cc="http://creativecommons.org/ns#"
   xmlns:rdf="http://www.w3.org/1999/02/22-rdf-syntax-ns#"
   xmlns:svg="http://www.w3.org/2000/svg"
   xmlns="http://www.w3.org/2000/svg"
   xmlns:sodipodi="http://sodipodi.sourceforge.net/DTD/sodipodi-0.dtd"
   xmlns:inkscape="http://www.inkscape.org/namespaces/inkscape"
   width="439.48907"
   height="339.82327"
   id="svg2"
   version="1.1"
   inkscape:version="0.47 r22583"
   sodipodi:docname="poleafisica.svg">
  <sodipodi:namedview
     id="base"
     pagecolor="#ffffff"
     bordercolor="#666666"
     borderopacity="1.0"
     inkscape:pageopacity="0.0"
     inkscape:pageshadow="2"
     inkscape:zoom="1.4981813"
     inkscape:cx="79.332376"
     inkscape:cy="194.93831"
     inkscape:document-units="px"
     inkscape:current-layer="layer2"
     showgrid="false"
     inkscape:window-width="1680"
     inkscape:window-height="975"
     inkscape:window-x="0"
     inkscape:window-y="24"
     inkscape:window-maximized="1"
     showguides="true"
     inkscape:guide-bbox="true" />
  <defs
     id="defs4">
    <marker
       inkscape:stockid="Arrow1Mend"
       orient="auto"
       refY="0.0"
       refX="0.0"
       id="Arrow1Mend"
       style="overflow:visible;">
      <path
         id="path4580"
         d="M 0.0,0.0 L 5.0,-5.0 L -12.5,0.0 L 5.0,5.0 L 0.0,0.0 z "
         style="fill-rule:evenodd;stroke:#000000;stroke-width:1.0pt;marker-start:none;"
         transform="scale(0.4) rotate(180) translate(10,0)" />
    </marker>
    <inkscape:perspective
       id="perspective10"
       inkscape:persp3d-origin="372.04724 : 350.78739 : 1"
       inkscape:vp_z="744.09448 : 526.18109 : 1"
       inkscape:vp_y="0 : 1000 : 0"
       inkscape:vp_x="0 : 526.18109 : 1"
       sodipodi:type="inkscape:persp3d" />
    <inkscape:perspective
       sodipodi:type="inkscape:persp3d"
       inkscape:vp_x="0 : 0.5 : 1"
       inkscape:vp_y="0 : 1000 : 0"
       inkscape:vp_z="1 : 0.5 : 1"
       inkscape:persp3d-origin="0.5 : 0.33333333 : 1"
       id="perspective2881" />
    <inkscape:perspective
       sodipodi:type="inkscape:persp3d"
       inkscape:vp_x="0 : 0.5 : 1"
       inkscape:vp_y="0 : 1000 : 0"
       inkscape:vp_z="1 : 0.5 : 1"
       inkscape:persp3d-origin="0.5 : 0.33333333 : 1"
       id="perspective2881-8" />
  </defs>
  <metadata
     id="metadata7">
    <rdf:RDF>
      <cc:Work
         rdf:about="">
        <dc:format>image/svg+xml</dc:format>
        <dc:type
           rdf:resource="http://purl.org/dc/dcmitype/StillImage" />
        <dc:title></dc:title>
      </cc:Work>
    </rdf:RDF>
  </metadata>
  <g
     id="layer1"
     inkscape:groupmode="layer"
     inkscape:label="Capa 1"
     transform="translate(-10.928571,9.8182179)">
    <path
       sodipodi:nodetypes="ccc"
       id="path2816"
       d="m 11.428571,86.647897 231.428569,0 0,242.857143"
       style="fill:none;stroke:#000000;stroke-width:1px;stroke-linecap:butt;stroke-linejoin:miter;stroke-opacity:1" />
    <path
       sodipodi:nodetypes="ccc"
       id="path2818"
       d="M 221.63095,86.488183 276.95833,57.720515 243.24167,103.47885"
       style="fill:none;stroke:#000000;stroke-width:1px;stroke-linecap:butt;stroke-linejoin:miter;stroke-opacity:1" />
    <g
       id="g3035"
       transform="matrix(0.57987704,0,0,0.57987704,13.76401,-193.13059)">
      <g
         word-spacing="normal"
         letter-spacing="normal"
         font-size-adjust="none"
         font-stretch="normal"
         font-weight="normal"
         font-variant="normal"
         font-style="normal"
         stroke-miterlimit="10.433"
         xml:space="preserve"
         transform="matrix(1.0629921,0,0,-1.0629921,-186.02362,789.27165)"
         id="g3037"
         style="font-style:normal;font-variant:normal;font-weight:normal;font-stretch:normal;letter-spacing:normal;word-spacing:normal;text-anchor:start;fill:none;stroke:#000000;stroke-linecap:butt;stroke-linejoin:miter;stroke-miterlimit:10.43299961;stroke-opacity:1;stroke-dasharray:none;stroke-dashoffset:0"><path
           id="path3039"
           d="m 477.27,436.24 0.03,0.13 0.03,0.12 0.03,0.11 0.03,0.11 0.03,0.11 0.03,0.09 0.03,0.1 0.03,0.08 0.03,0.09 0.03,0.07 0.03,0.08 0.03,0.06 0.03,0.07 0.03,0.06 0.03,0.05 0.03,0.06 0.03,0.04 0.03,0.05 0.04,0.04 0.03,0.04 0.04,0.03 0.03,0.04 0.04,0.03 0.04,0.02 0.04,0.03 0.05,0.02 0.04,0.02 0.05,0.02 0.05,0.02 0.05,0.02 0.05,0.01 0.05,0.02 c 0.45,0.1 2.1,0.1 3.14,0.1 5.04,0 7.28,-0.2 7.28,-4.09 0,-0.74 -0.2,-2.68 -0.4,-3.98 -0.05,-0.2 -0.15,-0.8 -0.15,-0.95 0,-0.3 0.15,-0.64 0.6,-0.64 0.55,0 0.64,0.39 0.74,1.14 l 1.35,8.67 c 0.05,0.2 0.1,0.7 0.1,0.85 0,0.54 -0.5,0.54 -1.35,0.54 h -27.64 c -1.2,0 -1.25,-0.05 -1.6,-0.99 l -2.98,-8.77 c -0.05,-0.1 -0.3,-0.8 -0.3,-0.9 0,-0.29 0.25,-0.54 0.59,-0.54 0.5,0 0.55,0.25 0.85,1.04 2.69,7.72 3.98,8.62 11.36,8.62 h 1.94 c 1.4,0 1.4,-0.2 1.4,-0.6 0,-0.3 -0.16,-0.9 -0.2,-1.04 l -6.68,-26.61 c -0.45,-1.84 -0.6,-2.39 -5.93,-2.39 -1.79,0 -2.09,0 -2.09,-0.94 0,-0.6 0.55,-0.6 0.85,-0.6 1.34,0 2.74,0.1 4.08,0.1 h 8.37 c 1.44,0 2.94,-0.1 4.33,-0.1 0.5,0 1.1,0 1.1,1 0,0.54 -0.4,0.54 -1.69,0.54 -1.25,0 -1.89,0 -3.19,0.1 -1.45,0.15 -1.84,0.3 -1.84,1.1 0,0.05 0,0.3 0.19,1.05 z"
           style="fill:#000000;stroke-width:0" /><path
           id="path3041"
           d="m 502.61,405.35 h -1.19 c -0.1,-0.77 -0.45,-2.83 -0.9,-3.18 -0.28,-0.21 -2.97,-0.21 -3.45,-0.21 h -6.42 c 3.66,3.25 4.88,4.22 6.97,5.86 2.58,2.06 4.99,4.22 4.99,7.54 0,4.21 -3.7,6.79 -8.16,6.79 -4.33,0 -7.25,-3.03 -7.25,-6.24 0,-1.78 1.5,-1.95 1.84,-1.95 0.84,0 1.85,0.59 1.85,1.85 0,0.62 -0.24,1.85 -2.05,1.85 1.08,2.47 3.45,3.24 5.09,3.24 3.48,0 5.3,-2.72 5.3,-5.54 0,-3.04 -2.16,-5.45 -3.28,-6.7 l -8.4,-8.3 c -0.35,-0.31 -0.35,-0.38 -0.35,-1.36 h 14.36 z"
           style="fill:#000000;stroke-width:0" /></g>    </g>
    <g
       transform="matrix(0.57987704,0,0,0.57987704,149.67993,-72.177637)"
       id="g3131">
      <g
         style="font-style:normal;font-variant:normal;font-weight:normal;font-stretch:normal;letter-spacing:normal;word-spacing:normal;text-anchor:start;fill:none;stroke:#000000;stroke-linecap:butt;stroke-linejoin:miter;stroke-miterlimit:10.43299961;stroke-opacity:1;stroke-dasharray:none;stroke-dashoffset:0"
         id="content"
         transform="matrix(1.0629921,0,0,-1.0629921,-186.02362,789.27165)"
         xml:space="preserve"
         stroke-miterlimit="10.433"
         font-style="normal"
         font-variant="normal"
         font-weight="normal"
         font-stretch="normal"
         font-size-adjust="none"
         letter-spacing="normal"
         word-spacing="normal"><path
           style="fill:#000000;stroke-width:0"
           d="m 477.27,436.24 0.03,0.13 0.03,0.12 0.03,0.11 0.03,0.11 0.03,0.11 0.03,0.09 0.03,0.1 0.03,0.08 0.03,0.09 0.03,0.07 0.03,0.08 0.03,0.06 0.03,0.07 0.03,0.06 0.03,0.05 0.03,0.06 0.03,0.04 0.03,0.05 0.04,0.04 0.03,0.04 0.04,0.03 0.03,0.04 0.04,0.03 0.04,0.02 0.04,0.03 0.05,0.02 0.04,0.02 0.05,0.02 0.05,0.02 0.05,0.02 0.05,0.01 0.05,0.02 c 0.45,0.1 2.1,0.1 3.14,0.1 5.04,0 7.28,-0.2 7.28,-4.09 0,-0.74 -0.2,-2.68 -0.4,-3.98 -0.05,-0.2 -0.15,-0.8 -0.15,-0.95 0,-0.3 0.15,-0.64 0.6,-0.64 0.55,0 0.64,0.39 0.74,1.14 l 1.35,8.67 c 0.05,0.2 0.1,0.7 0.1,0.85 0,0.54 -0.5,0.54 -1.35,0.54 h -27.64 c -1.2,0 -1.25,-0.05 -1.6,-0.99 l -2.98,-8.77 c -0.05,-0.1 -0.3,-0.8 -0.3,-0.9 0,-0.29 0.25,-0.54 0.59,-0.54 0.5,0 0.55,0.25 0.85,1.04 2.69,7.72 3.98,8.62 11.36,8.62 h 1.94 c 1.4,0 1.4,-0.2 1.4,-0.6 0,-0.3 -0.16,-0.9 -0.2,-1.04 l -6.68,-26.61 c -0.45,-1.84 -0.6,-2.39 -5.93,-2.39 -1.79,0 -2.09,0 -2.09,-0.94 0,-0.6 0.55,-0.6 0.85,-0.6 1.34,0 2.74,0.1 4.08,0.1 h 8.37 c 1.44,0 2.94,-0.1 4.33,-0.1 0.5,0 1.1,0 1.1,1 0,0.54 -0.4,0.54 -1.69,0.54 -1.25,0 -1.89,0 -3.19,0.1 -1.45,0.15 -1.84,0.3 -1.84,1.1 0,0.05 0,0.3 0.19,1.05 z"
           id="path3134" /><path
           style="fill:#000000;stroke-width:0"
           d="m 496.68,421.18 0,0.04 0,0.04 0,0.04 0,0.04 0,0.04 0,0.04 0,0.03 0,0.04 -0.01,0.03 0,0.03 0,0.04 0,0.03 -0.01,0.02 0,0.03 0,0.03 -0.01,0.03 0,0.02 0,0.02 -0.02,0.05 -0.01,0.04 -0.01,0.04 -0.02,0.03 -0.02,0.03 -0.02,0.03 -0.03,0.03 -0.02,0.02 -0.03,0.02 -0.04,0.02 -0.03,0.01 -0.04,0.01 -0.05,0.02 -0.05,0 -0.02,0.01 -0.03,0 -0.03,0.01 -0.02,0 -0.03,0 -0.03,0 -0.04,0 -0.03,0.01 -0.03,0 -0.04,0 -0.03,0 -0.04,0 -0.04,0 -0.04,0 -0.04,0 -0.04,0 -0.05,0 -0.04,0 c -2.24,-2.19 -5.41,-2.23 -6.84,-2.23 v -1.25 c 0.84,0 3.14,0 5.06,0.97 v -17.78 c 0,-1.15 0,-1.61 -3.49,-1.61 h -1.33 V 399 h 12.45 v 1.25 h -1.32 c -3.49,0 -3.49,0.46 -3.49,1.61 z"
           id="path3136" /></g>    </g>
  </g>
  <g
     style="display:inline"
     inkscape:label="polea"
     id="layer2"
     inkscape:groupmode="layer"
     transform="translate(-10.928571,9.8182179)">
    <path
       transform="translate(-12.23815,-5.4020713)"
       d="m 320.30834,62.709206 c 0,17.006096 -13.78616,30.792261 -30.79226,30.792261 -17.00609,0 -30.79226,-13.786165 -30.79226,-30.792261 0,-17.006097 13.78617,-30.792261 30.79226,-30.792261 17.0061,0 30.79226,13.786164 30.79226,30.792261 z"
       sodipodi:ry="30.792261"
       sodipodi:rx="30.792261"
       sodipodi:cy="62.709206"
       sodipodi:cx="289.51608"
       id="path2820"
       style="fill:none;stroke:#000000;stroke-width:2;stroke-miterlimit:4;stroke-opacity:1;stroke-dasharray:none"
       sodipodi:type="arc" />
    <path
       sodipodi:nodetypes="ccscc"
       id="path2857"
       d="m 186.10798,26.45715 92.20251,0 c 12.36665,0.202732 16.49229,4.266499 23.15751,12.080033 4.16067,4.877489 6.60355,11.923436 6.76574,17.599932 l 0,73.713355"
       style="fill:none;stroke:#000000;stroke-width:1px;stroke-linecap:butt;stroke-linejoin:miter;stroke-opacity:1" />
    <path
       sodipodi:nodetypes="cc"
       id="path3193"
       d="M 276.842,57.791183 290.41642,29.162656"
       style="fill:none;stroke:#000000;stroke-width:1;stroke-linecap:butt;stroke-linejoin:miter;stroke-miterlimit:4;stroke-opacity:1;stroke-dasharray:4, 4;stroke-dashoffset:0" />
    <g
       id="g3217">
      <g
         word-spacing="normal"
         letter-spacing="normal"
         font-size-adjust="none"
         font-stretch="normal"
         font-weight="normal"
         font-variant="normal"
         font-style="normal"
         stroke-miterlimit="10.433"
         xml:space="preserve"
         transform="matrix(1.0629921,0,0,-1.0629921,-186.02362,789.27165)"
         id="g3219"
         style="font-style:normal;font-variant:normal;font-weight:normal;font-stretch:normal;letter-spacing:normal;word-spacing:normal;text-anchor:start;fill:none;stroke:#000000;stroke-linecap:butt;stroke-linejoin:miter;stroke-miterlimit:10.43299961;stroke-opacity:1;stroke-dasharray:none;stroke-dashoffset:0"><path
           id="path3221"
           d="m 431.3288,701.94279 0.21858,0.0501 0.21402,0.0546 0.22313,0.0638 0.21858,0.0683 0.21858,0.0729 0.21857,0.082 0.21858,0.0865 0.21858,0.0911 0.21402,0.10019 0.20947,0.10473 0.20947,0.10929 0.20492,0.11384 0.20036,0.12295 0.19581,0.1275 0.19125,0.13206 0.18215,0.13661 0.17759,0.14116 0.16849,0.14572 0.15938,0.15482 0.15482,0.15939 0.14572,0.15938 0.13206,0.16848 0.1275,0.17304 0.11385,0.17759 0.10018,0.18215 0.0911,0.1867 0.0774,0.19126 0.0683,0.19581 0.0501,0.20036 0.0364,0.20491 0.0227,0.20492 0.009,0.21403 c 0,1.95352 -2.04006,3.4016 -5.01361,3.4016 h -6.46169 c -0.45537,0 -0.66028,0 -0.66028,-0.45082 0,-0.25045 0.20491,-0.25045 0.63751,-0.25045 0.0455,0 0.47358,0 0.86065,-0.0455 0.40983,-0.0455 0.61019,-0.0683 0.61019,-0.3643 0,-0.0911 -0.0182,-0.15937 -0.0911,-0.42804 l -3.03731,-12.18112 c -0.22768,-0.88797 -0.27322,-1.07012 -2.06282,-1.07012 -0.40984,0 -0.61475,0 -0.61475,-0.45082 0,-0.25045 0.27322,-0.25045 0.31876,-0.25045 h 5.73765 c 0.18214,0 0.45537,0 0.45537,0.45537 0,0.2459 -0.20492,0.2459 -0.63297,0.2459 -0.84243,0 -1.4754,0 -1.4754,0.40984 0,0.1366 0.041,0.25045 0.0683,0.38706 l 1.49361,6.01087 h 2.70034 l -0.0228,0.5009 h -2.54095 l 1.47539,5.9198 c 0.13662,0.54189 0.20492,0.76957 0.63296,0.83788 0.20492,0.0227 0.93351,0.0227 1.38433,0.0227 1.612,0 4.13019,0 4.13019,-2.24497 0,-0.77413 -0.36429,-2.34059 -1.24771,-3.22401 -0.59198,-0.58743 -1.79415,-1.31146 -3.83421,-1.31146 l 0.0228,-0.50091 c 2.06737,0 2.47265,-1.27048 2.47265,-2.06282 0,-0.34153 -0.18214,-1.04735 -0.31875,-1.56647 -0.15938,-0.63752 -0.35975,-1.4754 -0.35975,-1.92621 0,-2.45444 2.71856,-2.45444 3.01455,-2.45444 1.93076,0 2.7231,2.2905 2.7231,2.60927 0,0.27321 -0.25045,0.27321 -0.27322,0.27321 -0.20492,0 -0.25045,-0.15938 -0.29599,-0.31875 -0.56466,-1.67576 -1.53915,-2.06283 -2.06282,-2.06283 -0.74681,0 -0.90619,0.50091 -0.90619,1.38432 0,0.70127 0.13661,1.85791 0.22769,2.5865 0.0456,0.31421 0.0911,0.74681 0.0911,1.06556 0,1.74407 -1.52093,2.44989 -2.13568,2.67758 z"
           style="fill:#000000;stroke-width:0" /></g>    </g>
    <g
       transform="translate(244.3512,-9.8182179)"
       id="g4135"
       style="display:inline">
      <g
         style="font-style:normal;font-variant:normal;font-weight:normal;font-stretch:normal;letter-spacing:normal;word-spacing:normal;text-anchor:start;fill:none;stroke:#000000;stroke-linecap:butt;stroke-linejoin:miter;stroke-miterlimit:10.43299961;stroke-opacity:1;stroke-dasharray:none;stroke-dashoffset:0"
         id="g4137"
         transform="matrix(0.48546181,0,0,-0.48546181,-84.955817,258.82235)"
         xml:space="preserve"
         stroke-miterlimit="10.433"
         font-style="normal"
         font-variant="normal"
         font-weight="normal"
         font-stretch="normal"
         font-size-adjust="none"
         letter-spacing="normal"
         word-spacing="normal"><path
           style="fill:#000000;stroke-width:0"
           d="m 491.96,418.45 -0.02,0.86 -0.06,0.84 -0.11,0.83 -0.14,0.82 -0.19,0.8 -0.22,0.79 -0.27,0.77 -0.3,0.75 -0.33,0.74 -0.37,0.71 -0.4,0.7 -0.43,0.67 -0.46,0.65 -0.5,0.62 -0.52,0.61 -0.55,0.57 -0.58,0.55 -0.6,0.52 -0.63,0.5 -0.65,0.46 -0.67,0.43 -0.7,0.4 -0.71,0.36 -0.73,0.34 -0.76,0.29 -0.77,0.26 -0.78,0.23 -0.8,0.18 -0.82,0.15 -0.82,0.1 -0.84,0.07 -0.85,0.02 -0.05,-1.24 c 1.74,0 6.32,-0.25 10.41,-4.09 l -10.36,-10.41 0.89,-0.85 10.37,10.41 c 2.39,-2.54 4.08,-6.32 4.08,-10.41 0,-3.83 -1.45,-7.47 -4.04,-10.41 l -10.41,10.41 -0.89,0.85 -9.92,9.86 c -0.1,0.1 -0.44,0.45 -0.44,0.55 0,0.2 4.03,4.09 10.31,4.09 l 0.05,1.24 c -9.27,0 -16.64,-7.52 -16.64,-16.59 0,-9.16 7.47,-16.58 16.59,-16.58 l 0.05,1.24 c -1.75,0 -6.33,0.25 -10.42,4.09 l 10.37,10.41 -0.9,0.84 -10.41,-10.41 c -3.04,3.39 -4.04,7.23 -4.04,10.41 0,3.84 1.45,7.48 4.04,10.41 l 10.41,-10.41 0.9,-0.84 9.91,-9.87 c 0.1,-0.1 0.45,-0.44 0.45,-0.54 0,-0.2 -4.04,-4.09 -10.31,-4.09 l -0.05,-1.24 c 9.26,0 16.63,7.52 16.63,16.58 z"
           id="path4139" /></g>    </g>
    <path
       sodipodi:nodetypes="cc"
       id="path4199"
       d="m 390.15965,53.93204 0,39.004482"
       style="fill:none;stroke:#000000;stroke-width:1px;stroke-linecap:butt;stroke-linejoin:miter;stroke-opacity:1;marker-end:url(#Arrow1Mend)" />
    <path
       style="fill:none;stroke:#000000;stroke-width:1px;stroke-linecap:butt;stroke-linejoin:miter;stroke-opacity:1;marker-end:url(#Arrow1Mend)"
       d="m 398.12357,45.86021 39.00448,0"
       id="path4201"
       sodipodi:nodetypes="cc" />
    <g
       id="g4233"
       transform="translate(246.34475,-28.701466)">
      <g
         word-spacing="normal"
         letter-spacing="normal"
         font-size-adjust="none"
         font-stretch="normal"
         font-weight="normal"
         font-variant="normal"
         font-style="normal"
         stroke-miterlimit="10.433"
         xml:space="preserve"
         transform="matrix(0.48546181,0,0,-0.48546181,-84.955817,258.82235)"
         id="g4235"
         style="font-style:normal;font-variant:normal;font-weight:normal;font-stretch:normal;letter-spacing:normal;word-spacing:normal;text-anchor:start;fill:none;stroke:#000000;stroke-linecap:butt;stroke-linejoin:miter;stroke-miterlimit:10.43299961;stroke-opacity:1;stroke-dasharray:none;stroke-dashoffset:0"><polygon
           id="polygon4237"
           points="477.08,446.8 470.45,453.57 463.78,446.8 464.68,445.9 470.45,450.98 476.18,445.9 "
           style="fill:#000000;stroke-width:0" /><path
           id="path4239"
           d="m 466.66,417.8 v 22.77 l -8.82,-0.4 v -2.34 c 3.09,0 3.44,0 3.44,-1.94 v -27.55 h -3.44 V 406 h 12.01 v 2.34 h -3.44 v 6.33 c 1.45,1.14 1.84,1.44 2.84,2.14 l 5.03,-6.28 c 0.45,-0.6 1.25,-1.59 1.25,-1.74 0,-0.45 -0.9,-0.45 -1.55,-0.45 V 406 h 11.26 v 2.34 h -0.85 c -2.14,0 -2.29,0.2 -2.94,1 l -8.41,10.51 6.47,5.03 c 0.7,0.55 1.15,0.9 4.49,0.9 v 2.34 h -9.62 v -2.34 c 1.15,0 1.3,-0.16 1.69,-0.55 z"
           style="fill:#000000;stroke-width:0" /></g>    </g>
    <g
       id="g4341"
       transform="translate(307.08506,-8.317936)">
      <g
         id="g4343"
         transform="matrix(0.48546181,0,0,-0.48546181,-84.955817,258.82235)"
         xml:space="preserve"
         stroke-miterlimit="10.433"
         font-style="normal"
         font-variant="normal"
         font-weight="normal"
         font-stretch="normal"
         font-size-adjust="none"
         letter-spacing="normal"
         word-spacing="normal"
         style="font-style:normal;font-variant:normal;font-weight:normal;font-stretch:normal;letter-spacing:normal;word-spacing:normal;text-anchor:start;fill:none;stroke:#000000;stroke-linecap:butt;stroke-linejoin:miter;stroke-miterlimit:10.43299961;stroke-opacity:1;stroke-dasharray:none;stroke-dashoffset:0"><polygon
           points="457.68,445.9 463.45,450.98 469.18,445.9 470.08,446.8 463.45,453.57 456.78,446.8 "
           id="polygon4345"
           style="fill:#000000;stroke-width:0" /><path
           d="m 467.16,428.41 -8.67,-0.39 v -2.34 c 2.94,0 3.29,0 3.29,-1.95 v -15.39 h -3.44 V 406 h 11.91 v 2.34 h -3.09 z"
           id="path4347"
           style="fill:#000000;stroke-width:0" /><path
           d="m 467.66,436.73 -0.01,0.21 -0.01,0.2 -0.03,0.2 -0.04,0.19 -0.04,0.19 -0.05,0.19 -0.07,0.18 -0.07,0.18 -0.08,0.17 -0.08,0.17 -0.1,0.16 -0.1,0.16 -0.11,0.15 -0.12,0.15 -0.12,0.14 -0.13,0.13 -0.14,0.13 -0.14,0.12 -0.15,0.11 -0.15,0.11 -0.16,0.1 -0.16,0.09 -0.17,0.09 -0.17,0.07 -0.18,0.07 -0.17,0.06 -0.19,0.05 -0.18,0.04 -0.19,0.04 -0.19,0.02 -0.19,0.02 -0.2,0 c -2.14,0 -3.88,-1.74 -3.88,-3.89 0,-2.14 1.74,-3.88 3.88,-3.88 2.09,0 3.89,1.69 3.89,3.88 z"
           id="path4349"
           style="fill:#000000;stroke-width:0" /></g>    </g>
    <g
       id="g4461"
       transform="translate(261.44134,36.711178)">
      <g
         word-spacing="normal"
         letter-spacing="normal"
         font-size-adjust="none"
         font-stretch="normal"
         font-weight="normal"
         font-variant="normal"
         font-style="normal"
         stroke-miterlimit="10.433"
         xml:space="preserve"
         transform="matrix(0.48546181,0,0,-0.48546181,-84.955817,258.82235)"
         id="g4463"
         style="font-style:normal;font-variant:normal;font-weight:normal;font-stretch:normal;letter-spacing:normal;word-spacing:normal;text-anchor:start;fill:none;stroke:#000000;stroke-linecap:butt;stroke-linejoin:miter;stroke-miterlimit:10.43299961;stroke-opacity:1;stroke-dasharray:none;stroke-dashoffset:0"><polygon
           id="polygon4465"
           points="458.68,445.9 464.45,450.98 470.18,445.9 471.08,446.8 464.45,453.57 457.78,446.8 "
           style="fill:#000000;stroke-width:0" /><path
           id="path4467"
           d="m 460.13,428.02 v -2.34 c 0.85,0 1.95,0 2.69,-0.1 1.1,-0.2 1.1,-0.85 1.1,-1.9 v -19.77 c 0,-2.49 -0.75,-6.08 -3.74,-6.08 -0.79,0 -1.19,0.1 -1.94,0.3 0.95,0.7 1.2,1.74 1.2,2.49 0,1.74 -1.3,3.09 -3.09,3.09 -1.89,0 -3.14,-1.35 -3.14,-3.14 0,-2.84 2.99,-4.53 7.08,-4.53 4.28,0 9.01,2.59 9.01,7.87 v 24.5 z"
           style="fill:#000000;stroke-width:0" /><path
           id="path4469"
           d="m 469.3,436.73 0,0.2 -0.02,0.2 -0.02,0.19 -0.04,0.2 -0.04,0.18 -0.05,0.19 -0.07,0.18 -0.06,0.17 -0.08,0.18 -0.09,0.16 -0.09,0.17 -0.1,0.15 -0.11,0.16 -0.12,0.14 -0.12,0.15 -0.13,0.13 -0.13,0.13 -0.14,0.12 -0.15,0.12 -0.15,0.11 -0.16,0.1 -0.16,0.09 -0.17,0.09 -0.17,0.07 -0.18,0.07 -0.18,0.07 -0.19,0.05 -0.18,0.04 -0.19,0.04 -0.2,0.02 -0.2,0.02 -0.2,0 c -2.14,0 -3.88,-1.74 -3.88,-3.89 0,-2.14 1.74,-3.88 3.88,-3.88 2.15,0 3.89,1.74 3.89,3.88 z"
           style="fill:#000000;stroke-width:0" /></g>    </g>
  </g>
  <g
     style="display:inline"
     inkscape:label="bloque2"
     id="layer3"
     inkscape:groupmode="layer"
     transform="translate(-10.928571,9.8182179)">
    <rect
       y="-9.0674648"
       x="19.238295"
       height="94.890526"
       width="112.38129"
       id="rect2862"
       style="fill:none;stroke:#000000;stroke-width:1.50150609;stroke-miterlimit:4;stroke-opacity:1;stroke-dasharray:none;display:inline" />
    <g
       style="display:inline"
       transform="matrix(0.58350564,0,0,0.58350564,-118.11138,-165.68217)"
       id="g2971">
      <g
         style="font-style:normal;font-variant:normal;font-weight:normal;font-stretch:normal;letter-spacing:normal;word-spacing:normal;text-anchor:start;fill:none;stroke:#000000;stroke-linecap:butt;stroke-linejoin:miter;stroke-miterlimit:10.43299961;stroke-opacity:1;stroke-dasharray:none;stroke-dashoffset:0"
         id="g2973"
         transform="matrix(1.0629921,0,0,-1.0629921,-186.02362,789.27165)"
         xml:space="preserve"
         stroke-miterlimit="10.433"
         font-style="normal"
         font-variant="normal"
         font-weight="normal"
         font-stretch="normal"
         font-size-adjust="none"
         letter-spacing="normal"
         word-spacing="normal"><path
           style="fill:#000000;stroke-width:0"
           d="m 460.38,408.94 -0.01,-0.07 -0.02,-0.08 -0.01,-0.07 -0.02,-0.08 -0.03,-0.16 -0.04,-0.16 -0.04,-0.16 -0.03,-0.16 -0.04,-0.16 -0.04,-0.16 -0.01,-0.08 -0.02,-0.07 -0.02,-0.07 -0.01,-0.07 -0.02,-0.07 -0.01,-0.07 -0.01,-0.06 -0.02,-0.06 -0.01,-0.05 -0.01,-0.06 -0.01,-0.05 0,-0.04 -0.01,-0.04 0,-0.04 -0.01,-0.03 0,-0.02 c 0,-0.9 0.7,-1.35 1.45,-1.35 0.6,0 1.5,0.4 1.84,1.4 0.05,0.1 0.65,2.44 0.95,3.68 l 1.1,4.49 c 0.29,1.09 0.59,2.19 0.84,3.34 0.2,0.84 0.6,2.28 0.65,2.48 0.75,1.55 3.39,6.08 8.12,6.08 2.24,0 2.69,-1.84 2.69,-3.49 0,-1.24 -0.35,-2.64 -0.75,-4.13 l -1.39,-5.78 -1,-3.79 c -0.2,-0.99 -0.64,-2.68 -0.64,-2.93 0,-0.9 0.69,-1.35 1.44,-1.35 1.54,0 1.84,1.25 2.24,2.84 0.7,2.79 2.54,10.07 2.99,12.01 0.15,0.65 2.79,6.62 8.22,6.62 2.14,0 2.69,-1.69 2.69,-3.49 0,-2.84 -2.1,-8.51 -3.09,-11.15 -0.45,-1.2 -0.65,-1.75 -0.65,-2.74 0,-2.34 1.75,-4.09 4.08,-4.09 4.69,0 6.53,7.28 6.53,7.67 0,0.5 -0.45,0.5 -0.6,0.5 -0.5,0 -0.5,-0.15 -0.74,-0.89 -0.75,-2.64 -2.35,-6.18 -5.08,-6.18 -0.85,0 -1.2,0.5 -1.2,1.64 0,1.25 0.45,2.44 0.9,3.54 0.94,2.59 3.03,8.12 3.03,10.96 0,3.24 -1.99,5.33 -5.72,5.33 -3.74,0 -6.28,-2.2 -8.12,-4.84 -0.05,0.65 -0.2,2.35 -1.6,3.54 -1.24,1.05 -2.84,1.3 -4.08,1.3 -4.48,0 -6.92,-3.19 -7.77,-4.34 -0.25,2.84 -2.34,4.34 -4.58,4.34 -2.3,0 -3.24,-1.95 -3.69,-2.84 -0.9,-1.75 -1.54,-4.68 -1.54,-4.83 0,-0.5 0.49,-0.5 0.59,-0.5 0.5,0 0.55,0.05 0.85,1.14 0.84,3.54 1.84,5.93 3.64,5.93 0.79,0 1.54,-0.4 1.54,-2.29 0,-1.04 -0.15,-1.59 -0.8,-4.18 z"
           id="path2975" /><path
           style="fill:#000000;stroke-width:0"
           d="m 516.61,405.35 h -1.19 c -0.1,-0.77 -0.45,-2.83 -0.9,-3.18 -0.28,-0.21 -2.97,-0.21 -3.45,-0.21 h -6.42 c 3.66,3.25 4.88,4.22 6.97,5.86 2.58,2.06 4.99,4.22 4.99,7.54 0,4.21 -3.7,6.79 -8.16,6.79 -4.33,0 -7.25,-3.03 -7.25,-6.24 0,-1.78 1.5,-1.95 1.84,-1.95 0.84,0 1.85,0.59 1.85,1.85 0,0.62 -0.24,1.85 -2.05,1.85 1.08,2.47 3.45,3.24 5.09,3.24 3.48,0 5.3,-2.72 5.3,-5.54 0,-3.04 -2.16,-5.45 -3.28,-6.7 l -8.4,-8.3 c -0.35,-0.31 -0.35,-0.38 -0.35,-1.36 h 14.36 z"
           id="path2977" /></g>    </g>
  </g>
  <g
     style="display:inline"
     inkscape:label="cuerdabloque2"
     id="layer5"
     inkscape:groupmode="layer"
     transform="translate(-10.928571,9.8182179)">
    <path
       sodipodi:nodetypes="cc"
       id="path2857-8"
       d="m 130.10798,26.457183 148.20251,0"
       style="fill:none;stroke:#000000;stroke-width:1px;stroke-linecap:butt;stroke-linejoin:miter;stroke-opacity:1;display:inline" />
  </g>
  <g
     style="display:inline"
     inkscape:label="bloque1"
     id="layer4"
     inkscape:groupmode="layer"
     transform="translate(-10.928571,9.8182179)">
    <rect
       transform="matrix(0,1,-1,0,0,0)"
       style="fill:none;stroke:#000000;stroke-width:1.50150609;stroke-miterlimit:4;stroke-opacity:1;stroke-dasharray:none;display:inline"
       id="rect2864"
       width="112.38129"
       height="94.890526"
       x="210.18716"
       y="-355.27429" />
    <g
       style="display:inline"
       id="g2916"
       transform="matrix(0.58350564,0,0,0.58350564,114.63606,62.317841)">
      <g
         word-spacing="normal"
         letter-spacing="normal"
         font-size-adjust="none"
         font-stretch="normal"
         font-weight="normal"
         font-variant="normal"
         font-style="normal"
         stroke-miterlimit="10.433"
         xml:space="preserve"
         transform="matrix(1.0629921,0,0,-1.0629921,-186.02362,789.27165)"
         id="g3152"
         style="font-style:normal;font-variant:normal;font-weight:normal;font-stretch:normal;letter-spacing:normal;word-spacing:normal;text-anchor:start;fill:none;stroke:#000000;stroke-linecap:butt;stroke-linejoin:miter;stroke-miterlimit:10.43299961;stroke-opacity:1;stroke-dasharray:none;stroke-dashoffset:0"><path
           id="path2919"
           d="m 460.38,408.94 -0.01,-0.07 -0.02,-0.08 -0.01,-0.07 -0.02,-0.08 -0.03,-0.16 -0.04,-0.16 -0.04,-0.16 -0.03,-0.16 -0.04,-0.16 -0.04,-0.16 -0.01,-0.08 -0.02,-0.07 -0.02,-0.07 -0.01,-0.07 -0.02,-0.07 -0.01,-0.07 -0.01,-0.06 -0.02,-0.06 -0.01,-0.05 -0.01,-0.06 -0.01,-0.05 0,-0.04 -0.01,-0.04 0,-0.04 -0.01,-0.03 0,-0.02 c 0,-0.9 0.7,-1.35 1.45,-1.35 0.6,0 1.5,0.4 1.84,1.4 0.05,0.1 0.65,2.44 0.95,3.68 l 1.1,4.49 c 0.29,1.09 0.59,2.19 0.84,3.34 0.2,0.84 0.6,2.28 0.65,2.48 0.75,1.55 3.39,6.08 8.12,6.08 2.24,0 2.69,-1.84 2.69,-3.49 0,-1.24 -0.35,-2.64 -0.75,-4.13 l -1.39,-5.78 -1,-3.79 c -0.2,-0.99 -0.64,-2.68 -0.64,-2.93 0,-0.9 0.69,-1.35 1.44,-1.35 1.54,0 1.84,1.25 2.24,2.84 0.7,2.79 2.54,10.07 2.99,12.01 0.15,0.65 2.79,6.62 8.22,6.62 2.14,0 2.69,-1.69 2.69,-3.49 0,-2.84 -2.1,-8.51 -3.09,-11.15 -0.45,-1.2 -0.65,-1.75 -0.65,-2.74 0,-2.34 1.75,-4.09 4.08,-4.09 4.69,0 6.53,7.28 6.53,7.67 0,0.5 -0.45,0.5 -0.6,0.5 -0.5,0 -0.5,-0.15 -0.74,-0.89 -0.75,-2.64 -2.35,-6.18 -5.08,-6.18 -0.85,0 -1.2,0.5 -1.2,1.64 0,1.25 0.45,2.44 0.9,3.54 0.94,2.59 3.03,8.12 3.03,10.96 0,3.24 -1.99,5.33 -5.72,5.33 -3.74,0 -6.28,-2.2 -8.12,-4.84 -0.05,0.65 -0.2,2.35 -1.6,3.54 -1.24,1.05 -2.84,1.3 -4.08,1.3 -4.48,0 -6.92,-3.19 -7.77,-4.34 -0.25,2.84 -2.34,4.34 -4.58,4.34 -2.3,0 -3.24,-1.95 -3.69,-2.84 -0.9,-1.75 -1.54,-4.68 -1.54,-4.83 0,-0.5 0.49,-0.5 0.59,-0.5 0.5,0 0.55,0.05 0.85,1.14 0.84,3.54 1.84,5.93 3.64,5.93 0.79,0 1.54,-0.4 1.54,-2.29 0,-1.04 -0.15,-1.59 -0.8,-4.18 z"
           style="fill:#000000;stroke-width:0" /><path
           id="path2921"
           d="m 510.68,421.18 0,0.04 0,0.04 0,0.04 0,0.04 0,0.04 0,0.04 0,0.03 0,0.04 -0.01,0.03 0,0.03 0,0.04 0,0.03 -0.01,0.02 0,0.03 0,0.03 -0.01,0.03 0,0.02 0,0.02 -0.02,0.05 -0.01,0.04 -0.01,0.04 -0.02,0.03 -0.02,0.03 -0.02,0.03 -0.03,0.03 -0.02,0.02 -0.03,0.02 -0.04,0.02 -0.03,0.01 -0.04,0.01 -0.05,0.02 -0.05,0 -0.02,0.01 -0.03,0 -0.03,0.01 -0.02,0 -0.03,0 -0.03,0 -0.04,0 -0.03,0.01 -0.03,0 -0.04,0 -0.03,0 -0.04,0 -0.04,0 -0.04,0 -0.04,0 -0.04,0 -0.05,0 -0.04,0 c -2.24,-2.19 -5.41,-2.23 -6.84,-2.23 v -1.25 c 0.84,0 3.14,0 5.06,0.97 v -17.78 c 0,-1.15 0,-1.61 -3.49,-1.61 h -1.33 V 399 h 12.45 v 1.25 h -1.32 c -3.49,0 -3.49,0.46 -3.49,1.61 z"
           style="fill:#000000;stroke-width:0" /></g>    </g>
  </g>
  <g
     inkscape:label="cuerdabloque1"
     id="layer6"
     inkscape:groupmode="layer"
     transform="translate(-10.928571,9.8182179)">
    <path
       sodipodi:nodetypes="cc"
       id="path2857-2"
       d="m 308.23374,56.137148 0,153.713352"
       style="fill:none;stroke:#000000;stroke-width:1px;stroke-linecap:butt;stroke-linejoin:miter;stroke-opacity:1;display:inline" />
  </g>
  <g
     inkscape:groupmode="layer"
     id="layer7"
     inkscape:label="coo" />
</svg>
