<?xml version="1.0" encoding="UTF-8" standalone="no"?>
<!-- Created with Inkscape (http://www.inkscape.org/) -->

<svg
   xmlns:dc="http://purl.org/dc/elements/1.1/"
   xmlns:cc="http://creativecommons.org/ns#"
   xmlns:rdf="http://www.w3.org/1999/02/22-rdf-syntax-ns#"
   xmlns:svg="http://www.w3.org/2000/svg"
   xmlns="http://www.w3.org/2000/svg"
   xmlns:sodipodi="http://sodipodi.sourceforge.net/DTD/sodipodi-0.dtd"
   xmlns:inkscape="http://www.inkscape.org/namespaces/inkscape"
   width="457.05014"
   height="128.28874"
   id="svg2995"
   version="1.1"
   inkscape:version="0.48.3.1 r9886"
   sodipodi:docname="rocket1.pdf">
  <defs
     id="defs2997" />
  <sodipodi:namedview
     id="base"
     pagecolor="#ffffff"
     bordercolor="#666666"
     borderopacity="1.0"
     inkscape:pageopacity="0.0"
     inkscape:pageshadow="2"
     inkscape:zoom="2.155234"
     inkscape:cx="166.27738"
     inkscape:cy="49.057462"
     inkscape:document-units="px"
     inkscape:current-layer="layer1"
     showgrid="false"
     fit-margin-top="0"
     fit-margin-left="0"
     fit-margin-right="0"
     fit-margin-bottom="0"
     inkscape:window-width="1920"
     inkscape:window-height="1035"
     inkscape:window-x="0"
     inkscape:window-y="26"
     inkscape:window-maximized="1" />
  <metadata
     id="metadata3000">
    <rdf:RDF>
      <cc:Work
         rdf:about="">
        <dc:format>image/svg+xml</dc:format>
        <dc:type
           rdf:resource="http://purl.org/dc/dcmitype/StillImage" />
        <dc:title></dc:title>
      </cc:Work>
    </rdf:RDF>
  </metadata>
  <g
     inkscape:label="Layer 1"
     inkscape:groupmode="layer"
     id="layer1"
     transform="translate(-431.91157,-186.73766)"
     style="display:inline">
    <path
       inkscape:connector-curvature="0"
       sodipodi:nodetypes="cccc"
       id="path663"
       d="m 587.33294,243.45542 c -19.89609,16.09846 -76.02278,49.85448 -135.96335,17.30331 5.44789,-6.7671 8.27269,-35.8145 3.51184,-46.56049 68.8979,-16.09141 115.41525,11.23487 132.45151,29.25718 z"
       style="fill:#d9d9d9;fill-rule:evenodd;stroke:#000000;stroke-width:3.24477744;stroke-linejoin:round;stroke-dasharray:none" />
    <path
       inkscape:connector-curvature="0"
       sodipodi:nodetypes="ccccc"
       id="path664"
       d="m 496.48612,209.29026 c 0,0 -18.95746,-20.72152 -19.13509,-20.93166 -0.17764,-0.21013 -35.96886,9.87056 -37.97247,10.4834 l 15.47016,15.74376 c 2.13361,-2.16392 33.91518,-6.33344 41.6374,-5.2955 z"
       style="fill:#bfbfbf;fill-rule:evenodd;stroke:#000000;stroke-width:3.24477744;stroke-linejoin:round;stroke-dasharray:none" />
    <path
       inkscape:connector-curvature="0"
       sodipodi:nodetypes="ccccc"
       id="path665"
       d="m 491.04166,273.76073 c 0,0 -21.99491,16.97007 -22.20934,17.14249 -0.21444,0.17242 -33.42752,-16.54653 -35.27756,-17.53009 l 18.1878,-12.50585 c 9.17692,6.2828 30.17972,12.13232 39.2991,12.89345 z"
       style="fill:#bfbfbf;fill-rule:evenodd;stroke:#000000;stroke-width:3.24477768;stroke-linejoin:round;stroke-dasharray:none" />
    <path
       inkscape:connector-curvature="0"
       sodipodi:nodetypes="ccccc"
       id="path666"
       d="m 495.92263,244.64483 c 0,0 -10.68151,-5.46851 -12.44339,-6.34285 -1.51715,-0.31008 -32.77063,0.2311 -34.84418,0.53179 l 5.32932,4.70663 c 3.59366,0.23313 33.27971,0.76599 41.95825,1.10443 z"
       style="fill:#bfbfbf;fill-rule:evenodd;stroke:#000000;stroke-width:3.24477744;stroke-linejoin:round;stroke-dasharray:none" />
    <path
       inkscape:connector-curvature="0"
       sodipodi:nodetypes="ccccccc"
       id="path667"
       d="m 496.748,244.27408 -0.93086,-9.52928 -12.60121,-4.53033 -35.44079,1.17624 0.81516,7.19051 34.82172,-0.0174 13.33598,5.71031 z"
       style="fill:#bfbfbf;fill-rule:evenodd;stroke:#000000;stroke-width:3.24477744;stroke-linejoin:round;stroke-dasharray:none" />
    <path
       inkscape:connector-curvature="0"
       sodipodi:nodetypes="ccc"
       id="path668"
       d="m 539.89903,241.04179 c -1.02634,-15.7044 -25.8587,-15.24795 -25.51025,-0.77157 0.47627,17.61059 23.49982,15.44051 25.51025,0.77157 z"
       style="fill:#bfbfbf;fill-rule:evenodd;stroke:#000000;stroke-width:4.0559721;stroke-linejoin:round" />
    <path
       inkscape:connector-curvature="0"
       sodipodi:nodetypes="ccc"
       id="path669"
       d="m 537.12008,241.58987 c -0.99006,9.48324 -18.3277,13.69162 -20.50262,0.0386 -0.47825,-12.92505 20.26635,-13.52937 20.50262,-0.0386 z"
       style="fill:#aeffff;fill-rule:evenodd;stroke:#000000;stroke-width:3.24477744;stroke-linejoin:round;stroke-dasharray:none" />
    <path
       inkscape:connector-curvature="0"
       sodipodi:nodetypes="ccc"
       id="path670"
       d="m 533.31464,245.18532 c 0.70774,-2.61116 2.05966,-10.07889 -5.30296,-11.3873 -3.86233,1.82378 -0.0951,15.22987 5.30296,11.3873 z"
       style="fill:#ffffff;fill-opacity:0.75;fill-rule:evenodd;stroke-width:12.5;stroke-linejoin:round" />
    <text
       transform="translate(388.95533,186.73766)"
       xml:space="preserve"
       style="font-size:28px;font-style:italic;font-variant:normal;font-weight:normal;font-stretch:normal;text-align:start;line-height:58.99999738%;letter-spacing:0px;word-spacing:0px;writing-mode:lr-tb;text-anchor:start;fill:#000000;fill-opacity:1;stroke:none;display:inline;font-family:FreeSerif;-inkscape-font-specification:FreeSerif Italic"
       x="60.782265"
       y="128.03674"
       id="text3270"
       sodipodi:linespacing="58.999997%"><tspan
         sodipodi:role="line"
         id="tspan3272"
         x="60.782265"
         y="128.03674">M+<tspan
   style="font-style:normal;-inkscape-font-specification:FreeSerif"
   id="tspan3274">Δ</tspan>m</tspan></text>
  </g>
  <g
     inkscape:groupmode="layer"
     id="layer2"
     inkscape:label="fuel"
     style="display:none"
     transform="translate(-42.956247,-0.02539042)">
    <path
       transform="translate(-388.95532,-186.71227)"
       inkscape:connector-curvature="0"
       sodipodi:nodetypes="cccccccccccc"
       id="path671"
       d="m 455.45261,214.87379 c 0,0 -11.095,-6.70597 -21.35019,-11.56305 -10.25564,-4.85712 -19.82919,-3.34431 -20.67317,-2.63085 -0.84374,0.71324 2.09717,5.90407 4.47099,8.28424 2.37382,2.38017 12.6071,2.50374 -4.36899,2.96249 -16.97584,0.45854 -27.03282,3.11081 -24.05675,5.34748 4.71269,7.71475 28.60322,12.01228 18.845,15.87442 -9.75796,3.86192 -27.67419,8.77105 -11.72655,11.37533 15.94743,2.60403 27.78041,-0.0871 20.63776,5.58521 -7.1424,5.67214 -16.59714,8.18091 -7.99477,11.51075 8.60262,3.32962 32.97174,-0.78284 43.35849,-2.61704 3.14234,-7.40881 7.76069,-23.77974 2.85818,-44.12898 z"
       style="fill:#ff4000;fill-rule:evenodd;stroke-width:3.75" />
    <path
       transform="translate(-388.95532,-186.71227)"
       inkscape:connector-curvature="0"
       sodipodi:nodetypes="cccccccccc"
       id="path672"
       d="m 456.70283,222.74548 c 0,0 -11.7251,-9.18241 -17.08823,-10.41267 -5.36334,-1.2305 -5.63848,-0.27733 -2.36132,4.87807 3.27716,5.1554 11.59754,6.048 -0.22965,7.39924 -11.82723,1.35171 -23.66913,0.55446 -13.31529,5.13171 10.35408,4.57705 13.00327,5.57984 5.44132,7.2888 -7.56195,1.70896 -14.3811,3.87089 -1.68303,6.10617 9.45049,1.37804 1.02894,11.01919 -0.11945,13.07043 -4.52524,2.74446 26.43332,-3.25057 28.53443,-5.02672 1.95622,-2.37426 1.40201,-26.04361 0.82122,-28.43503 z"
       style="fill:#ffff33;fill-opacity:0.696296;fill-rule:evenodd;stroke-width:12.5;stroke-linejoin:round" />
  </g>
  <g
     inkscape:groupmode="layer"
     id="layer3"
     inkscape:label="displaced"
     style="display:inline"
     transform="translate(-42.956247,-0.02539042)">
    <path
       inkscape:connector-curvature="0"
       sodipodi:nodetypes="cccc"
       id="path663-4"
       d="m 498.37761,56.743151 c -19.89609,16.09846 -76.02278,49.854479 -135.96335,17.30331 5.44789,-6.7671 8.27269,-35.8145 3.51184,-46.56049 68.8979,-16.09141 115.41525,11.23487 132.45151,29.25718 z"
       style="fill:#d9d9d9;fill-rule:evenodd;stroke:#000000;stroke-width:3.24477744;stroke-linejoin:round;stroke-dasharray:none" />
    <path
       inkscape:connector-curvature="0"
       sodipodi:nodetypes="ccccc"
       id="path664-2"
       d="m 407.53079,22.577991 c 0,0 -18.95746,-20.7215198 -19.13509,-20.9316598 -0.17764,-0.21013 -35.96886,9.8705598 -37.97247,10.4833998 l 15.47016,15.74376 c 2.13361,-2.16392 33.91518,-6.33344 41.6374,-5.2955 z"
       style="fill:#bfbfbf;fill-rule:evenodd;stroke:#000000;stroke-width:3.24477744;stroke-linejoin:round;stroke-dasharray:none" />
    <path
       inkscape:connector-curvature="0"
       sodipodi:nodetypes="ccccc"
       id="path665-5"
       d="m 402.08633,87.048461 c 0,0 -21.99491,16.970069 -22.20934,17.142489 -0.21444,0.17242 -33.42752,-16.546529 -35.27756,-17.530089 l 18.1878,-12.50585 c 9.17692,6.2828 30.17972,12.13232 39.2991,12.89345 z"
       style="fill:#bfbfbf;fill-rule:evenodd;stroke:#000000;stroke-width:3.24477768;stroke-linejoin:round;stroke-dasharray:none" />
    <path
       inkscape:connector-curvature="0"
       sodipodi:nodetypes="ccccc"
       id="path666-2"
       d="m 406.9673,57.932561 c 0,0 -10.68151,-5.46851 -12.44339,-6.34285 -1.51715,-0.31008 -32.77063,0.2311 -34.84418,0.53179 l 5.32932,4.70663 c 3.59366,0.23313 33.27971,0.76599 41.95825,1.10443 z"
       style="fill:#bfbfbf;fill-rule:evenodd;stroke:#000000;stroke-width:3.24477744;stroke-linejoin:round;stroke-dasharray:none" />
    <path
       inkscape:connector-curvature="0"
       sodipodi:nodetypes="ccccccc"
       id="path667-3"
       d="m 407.79267,57.561811 -0.93086,-9.52928 -12.60121,-4.53033 -35.44079,1.17624 0.81516,7.19051 34.82172,-0.0174 13.33598,5.71031 z"
       style="fill:#bfbfbf;fill-rule:evenodd;stroke:#000000;stroke-width:3.24477744;stroke-linejoin:round;stroke-dasharray:none" />
    <path
       inkscape:connector-curvature="0"
       sodipodi:nodetypes="ccc"
       id="path668-5"
       d="m 450.9437,54.329521 c -1.02634,-15.7044 -25.8587,-15.24795 -25.51025,-0.77157 0.47627,17.61059 23.49982,15.44051 25.51025,0.77157 z"
       style="fill:#bfbfbf;fill-rule:evenodd;stroke:#000000;stroke-width:4.0559721;stroke-linejoin:round" />
    <path
       inkscape:connector-curvature="0"
       sodipodi:nodetypes="ccc"
       id="path669-8"
       d="m 448.16475,54.877601 c -0.99006,9.48324 -18.3277,13.69162 -20.50262,0.0386 -0.47825,-12.92505 20.26635,-13.52937 20.50262,-0.0386 z"
       style="fill:#aeffff;fill-rule:evenodd;stroke:#000000;stroke-width:3.24477744;stroke-linejoin:round;stroke-dasharray:none" />
    <path
       inkscape:connector-curvature="0"
       sodipodi:nodetypes="ccc"
       id="path670-9"
       d="m 444.35931,58.473051 c 0.70774,-2.61116 2.05966,-10.07889 -5.30296,-11.3873 -3.86233,1.82378 -0.0951,15.22987 5.30296,11.3873 z"
       style="fill:#ffffff;fill-opacity:0.75;fill-rule:evenodd;stroke-width:12.5;stroke-linejoin:round" />
  </g>
  <g
     inkscape:groupmode="layer"
     id="layer4"
     inkscape:label="fuel#1"
     style="display:inline"
     transform="translate(-42.956238,0)">
    <path
       transform="translate(-8.9981459e-6,-0.02539042)"
       inkscape:connector-curvature="0"
       sodipodi:nodetypes="cccccccccccc"
       id="path671-0"
       d="m 366.49728,28.161521 c 0,0 -11.095,-6.70597 -21.35019,-11.56305 -10.25564,-4.85712 -19.82919,-3.34431 -20.67317,-2.63085 -0.84374,0.71324 2.09717,5.90407 4.47099,8.28424 2.37382,2.38017 12.6071,2.50374 -4.36899,2.96249 -16.97584,0.45854 -27.03282,3.11081 -24.05675,5.34748 4.71269,7.71475 28.60322,12.01228 18.845,15.87442 -9.75796,3.86192 -27.67419,8.77105 -11.72655,11.37533 15.94743,2.60403 27.78041,-0.0871 20.63776,5.58521 -7.1424,5.67214 -16.59714,8.18091 -7.99477,11.51075 8.60262,3.32962 32.97174,-0.78284 43.35849,-2.61704 3.14234,-7.40881 7.76069,-23.77974 2.85818,-44.12898 z"
       style="fill:#ff4000;fill-rule:evenodd;stroke-width:3.75;display:inline" />
    <path
       transform="translate(-8.9981459e-6,-0.02539042)"
       inkscape:connector-curvature="0"
       sodipodi:nodetypes="cccccccccc"
       id="path672-0"
       d="m 367.7475,36.033211 c 0,0 -11.7251,-9.18241 -17.08823,-10.41267 -5.36334,-1.2305 -5.63848,-0.27733 -2.36132,4.87807 3.27716,5.1554 11.59754,6.048 -0.22965,7.39924 -11.82723,1.35171 -23.66913,0.55446 -13.31529,5.13171 10.35408,4.57705 13.00327,5.57984 5.44132,7.2888 -7.56195,1.70896 -14.3811,3.87089 -1.68303,6.10617 9.45049,1.37804 1.02894,11.01919 -0.11945,13.07043 -4.52524,2.74446 26.43332,-3.25057 28.53443,-5.02672 1.95622,-2.37426 1.40201,-26.04361 0.82122,-28.43503 z"
       style="fill:#ffff33;fill-opacity:0.696296;fill-rule:evenodd;stroke-width:12.5;stroke-linejoin:round;display:inline" />
  </g>
  <g
     inkscape:groupmode="layer"
     id="layer5"
     inkscape:label="labels"
     style="display:inline">
    <text
       transform="translate(-42.956238,0)"
       xml:space="preserve"
       style="font-size:28px;font-style:italic;font-variant:normal;font-weight:normal;font-stretch:normal;text-align:start;line-height:58.99999738%;letter-spacing:0px;word-spacing:0px;writing-mode:lr-tb;text-anchor:start;fill:#000000;fill-opacity:1;stroke:none;display:inline;font-family:FreeSerif;-inkscape-font-specification:FreeSerif Italic"
       x="291.3837"
       y="95.589508"
       id="text3276"
       sodipodi:linespacing="58.999997%"><tspan
         sodipodi:role="line"
         id="tspan3278"
         x="291.3837"
         y="95.589508">Δm</tspan></text>
    <text
       transform="translate(-42.956238,0)"
       sodipodi:linespacing="58.999997%"
       id="text3284"
       y="128.03674"
       x="390.78226"
       style="font-size:28px;font-style:italic;font-variant:normal;font-weight:normal;font-stretch:normal;text-align:start;line-height:58.99999738%;letter-spacing:0px;word-spacing:0px;writing-mode:lr-tb;text-anchor:start;fill:#000000;fill-opacity:1;stroke:none;display:inline;font-family:FreeSerif;-inkscape-font-specification:FreeSerif Italic"
       xml:space="preserve"><tspan
         y="128.03674"
         x="390.78226"
         id="tspan3286"
         sodipodi:role="line">M</tspan></text>
  </g>
</svg>
